<svg width="221" height="146" viewBox="0 0 221 146" fill="none" xmlns="http://www.w3.org/2000/svg">
<path d="M0 46.5263C0 30.2406 0 22.0977 3.16942 15.8774C5.95731 10.4058 10.4058 5.95731 15.8774 3.16942C22.0977 0 30.2406 0 46.5263 0H174.474C190.759 0 198.902 0 205.123 3.16942C210.594 5.95731 215.043 10.4058 217.831 15.8774C221 22.0977 221 30.2406 221 46.5263V98.8684C221 115.154 221 123.297 217.831 129.517C215.043 134.989 210.594 139.437 205.123 142.225C198.902 145.395 190.759 145.395 174.474 145.395H46.5263C30.2406 145.395 22.0977 145.395 15.8774 142.225C10.4058 139.437 5.95731 134.989 3.16942 129.517C0 123.297 0 115.154 0 98.8684V46.5263Z" fill="url(#paint0_linear)"/>
<mask id="mask0" mask-type="alpha" maskUnits="userSpaceOnUse" x="0" y="0" width="221" height="146">
<path d="M0 46.5263C0 30.2406 0 22.0977 3.16942 15.8774C5.95731 10.4058 10.4058 5.95731 15.8774 3.16942C22.0977 0 30.2406 0 46.5263 0H174.474C190.759 0 198.902 0 205.123 3.16942C210.594 5.95731 215.043 10.4058 217.831 15.8774C221 22.0977 221 30.2406 221 46.5263V98.8684C221 115.154 221 123.297 217.831 129.517C215.043 134.989 210.594 139.437 205.123 142.225C198.902 145.395 190.759 145.395 174.474 145.395H46.5263C30.2406 145.395 22.0977 145.395 15.8774 142.225C10.4058 139.437 5.95731 134.989 3.16942 129.517C0 123.297 0 115.154 0 98.8684V46.5263Z" fill="url(#paint1_linear)"/>
</mask>
<g mask="url(#mask0)">
<path d="M101.353 126.743C101.211 126.743 101.104 126.707 100.997 126.6C100.89 126.493 100.854 126.386 100.854 126.244C100.854 126.208 100.854 126.173 100.854 126.137C100.854 126.101 100.854 126.066 100.89 126.03C100.89 125.995 100.926 125.959 100.926 125.959C100.961 125.923 100.961 125.923 100.997 125.888C101.032 125.852 101.032 125.852 101.068 125.816C101.104 125.816 101.104 125.781 101.139 125.781C101.175 125.781 101.211 125.745 101.246 125.745C101.317 125.745 101.389 125.745 101.424 125.745C101.46 125.745 101.496 125.745 101.531 125.781C101.567 125.781 101.602 125.816 101.602 125.816C101.638 125.852 101.638 125.852 101.674 125.888C101.709 125.923 101.709 125.923 101.745 125.959C101.745 125.995 101.781 125.995 101.781 126.03C101.781 126.066 101.816 126.101 101.816 126.137C101.816 126.173 101.816 126.208 101.816 126.244C101.816 126.386 101.781 126.493 101.674 126.6C101.602 126.671 101.496 126.743 101.353 126.743Z" fill="#7048A3"/>
<path d="M207.132 125.709C206.99 125.496 207.061 125.175 207.31 125.068C207.524 124.926 207.845 125.033 207.952 125.246C208.094 125.46 207.987 125.781 207.773 125.888C207.702 125.923 207.631 125.959 207.524 125.959C207.382 125.959 207.239 125.888 207.132 125.709ZM99.3936 124.498C99.251 124.284 99.2867 123.964 99.5361 123.821C99.7498 123.679 100.07 123.714 100.213 123.964C100.356 124.177 100.32 124.498 100.07 124.641C99.9992 124.712 99.8923 124.712 99.7855 124.712C99.6429 124.712 99.4648 124.605 99.3936 124.498ZM209.341 124.427C209.199 124.213 209.27 123.892 209.484 123.75C209.697 123.607 210.018 123.679 210.161 123.892C210.303 124.106 210.232 124.427 210.018 124.569C209.947 124.605 209.84 124.641 209.769 124.641C209.59 124.641 209.448 124.569 209.341 124.427ZM211.479 122.966C211.336 122.752 211.372 122.467 211.586 122.289C211.799 122.147 212.084 122.182 212.263 122.396C212.405 122.61 212.369 122.895 212.156 123.073C212.084 123.144 211.978 123.18 211.871 123.18C211.728 123.18 211.586 123.109 211.479 122.966ZM98.0397 122.218C97.9328 121.969 98.0041 121.683 98.2535 121.577C98.5029 121.434 98.7879 121.541 98.8948 121.79C99.0016 122.04 98.9304 122.325 98.681 122.432C98.6097 122.467 98.5385 122.503 98.4672 122.503C98.2891 122.503 98.111 122.396 98.0397 122.218ZM213.545 121.434C213.367 121.22 213.403 120.935 213.616 120.757C213.83 120.579 214.115 120.615 214.293 120.828C214.472 121.042 214.436 121.327 214.222 121.505C214.115 121.577 214.044 121.612 213.937 121.612C213.795 121.612 213.652 121.541 213.545 121.434ZM96.9352 119.831C96.8283 119.581 96.9709 119.296 97.2203 119.19C97.4697 119.083 97.7547 119.225 97.8259 119.475C97.9328 119.724 97.7903 120.009 97.5409 120.08C97.4697 120.116 97.434 120.116 97.3628 120.116C97.1846 120.152 97.0065 120.045 96.9352 119.831ZM215.54 119.795C215.362 119.617 215.398 119.296 215.576 119.118C215.79 118.94 216.075 118.976 216.253 119.154C216.431 119.332 216.395 119.653 216.217 119.831C216.11 119.902 216.004 119.938 215.897 119.938C215.754 119.938 215.612 119.902 215.54 119.795ZM217.429 118.049C217.25 117.871 217.25 117.551 217.429 117.373C217.607 117.194 217.927 117.194 218.106 117.373C218.284 117.551 218.284 117.871 218.106 118.049C217.999 118.156 217.892 118.192 217.749 118.192C217.642 118.192 217.5 118.156 217.429 118.049ZM96.1158 117.373C96.0445 117.123 96.187 116.838 96.4364 116.767C96.6858 116.696 96.9709 116.838 97.0421 117.088C97.1134 117.337 96.9709 117.622 96.7215 117.693C96.6858 117.693 96.6502 117.729 96.579 117.729C96.3652 117.729 96.187 117.586 96.1158 117.373ZM219.21 116.197C218.996 116.019 218.996 115.698 219.174 115.52C219.353 115.342 219.673 115.306 219.851 115.484C220.029 115.662 220.065 115.983 219.887 116.161C219.78 116.268 219.673 116.304 219.531 116.304C219.424 116.339 219.317 116.304 219.21 116.197ZM95.5457 114.807C95.5101 114.558 95.6883 114.309 95.9377 114.273C96.187 114.237 96.4364 114.415 96.5077 114.665C96.5433 114.914 96.3652 115.164 96.1158 115.235C96.0802 115.235 96.0802 115.235 96.0445 115.235C95.7951 115.199 95.5814 115.021 95.5457 114.807ZM220.92 114.273C220.706 114.095 220.671 113.81 220.849 113.596C221.027 113.382 221.312 113.382 221.526 113.525C221.74 113.703 221.775 113.988 221.597 114.202C221.49 114.309 221.383 114.38 221.241 114.38C221.134 114.38 221.027 114.344 220.92 114.273ZM95.2607 112.206C95.2607 111.957 95.4389 111.708 95.7239 111.708C95.9733 111.708 96.2227 111.886 96.2227 112.171C96.2227 112.42 96.0445 112.67 95.7595 112.67H95.7239C95.4745 112.634 95.2964 112.456 95.2607 112.206ZM222.523 112.278C222.31 112.135 222.274 111.815 222.417 111.601C222.559 111.387 222.88 111.351 223.093 111.494C223.307 111.636 223.343 111.957 223.2 112.171C223.093 112.313 222.951 112.349 222.808 112.349C222.737 112.385 222.63 112.349 222.523 112.278ZM224.055 110.211C223.842 110.069 223.77 109.748 223.913 109.534C224.055 109.321 224.376 109.249 224.59 109.392C224.804 109.534 224.875 109.855 224.732 110.069C224.625 110.211 224.483 110.283 224.34 110.283C224.234 110.283 224.127 110.247 224.055 110.211ZM95.6883 110.069C95.4389 110.069 95.2251 109.819 95.2251 109.57C95.2251 109.321 95.4745 109.107 95.7239 109.107C95.9733 109.107 96.187 109.356 96.187 109.606C96.187 109.855 95.9733 110.069 95.6883 110.069C95.7239 110.069 95.7239 110.069 95.6883 110.069ZM225.445 108.038C225.231 107.896 225.16 107.61 225.267 107.361C225.409 107.147 225.694 107.076 225.944 107.183C226.157 107.325 226.229 107.61 226.122 107.86C226.015 108.002 225.872 108.109 225.694 108.109C225.623 108.109 225.516 108.074 225.445 108.038ZM95.902 107.504C95.6526 107.468 95.4745 107.219 95.5101 106.969C95.5457 106.72 95.7951 106.542 96.0445 106.577C96.2939 106.613 96.4721 106.862 96.4364 107.112C96.4008 107.361 96.187 107.504 95.9733 107.504C95.9377 107.504 95.9377 107.504 95.902 107.504ZM226.763 105.829C226.514 105.687 226.442 105.402 226.585 105.188C226.728 104.938 227.013 104.867 227.226 105.01C227.44 105.152 227.547 105.437 227.404 105.651C227.298 105.793 227.155 105.9 226.977 105.9C226.906 105.865 226.834 105.865 226.763 105.829ZM96.3652 104.974C96.1158 104.903 95.9733 104.653 96.0445 104.368C96.1158 104.119 96.3652 103.976 96.6502 104.012C96.8996 104.083 97.0777 104.333 97.0065 104.618C96.9352 104.832 96.7571 104.974 96.5433 104.974C96.4721 105.01 96.4364 104.974 96.3652 104.974ZM227.939 103.549C227.689 103.442 227.583 103.157 227.725 102.908C227.832 102.658 228.117 102.551 228.366 102.694C228.616 102.801 228.723 103.086 228.58 103.335C228.509 103.513 228.331 103.62 228.153 103.62C228.081 103.585 228.01 103.549 227.939 103.549ZM97.149 102.516C96.8996 102.409 96.7927 102.124 96.864 101.874C96.9709 101.625 97.2559 101.518 97.5053 101.589C97.7547 101.696 97.8616 101.981 97.7903 102.231C97.719 102.409 97.5409 102.551 97.3271 102.551C97.2559 102.551 97.1846 102.551 97.149 102.516ZM229.008 101.197C228.758 101.091 228.651 100.806 228.758 100.556C228.865 100.307 229.15 100.2 229.4 100.307C229.649 100.414 229.756 100.699 229.649 100.948C229.578 101.126 229.4 101.233 229.186 101.233C229.115 101.233 229.043 101.233 229.008 101.197ZM98.1822 100.164C97.9684 100.022 97.8616 99.7367 98.0041 99.523C98.1466 99.2736 98.4316 99.2023 98.6454 99.3448C98.8948 99.4873 98.966 99.7724 98.8235 99.9861C98.7523 100.129 98.5741 100.236 98.396 100.236C98.3247 100.236 98.2535 100.2 98.1822 100.164ZM229.934 98.8104C229.685 98.7035 229.542 98.4541 229.649 98.2047C229.756 97.9554 230.005 97.8128 230.255 97.9197C230.504 97.991 230.647 98.276 230.54 98.5254C230.468 98.7392 230.29 98.846 230.077 98.846C230.041 98.8104 230.005 98.8104 229.934 98.8104ZM99.4648 97.9553C99.251 97.8128 99.1798 97.4922 99.3223 97.2784C99.4648 97.0647 99.7855 96.9934 99.9992 97.1359C100.213 97.2784 100.284 97.5991 100.142 97.8128C100.035 97.9554 99.8923 98.0266 99.7498 98.0266C99.643 98.0266 99.5361 97.991 99.4648 97.9553ZM230.753 96.3521C230.504 96.2808 230.362 95.9958 230.433 95.7464C230.504 95.497 230.789 95.3545 231.038 95.4258C231.288 95.497 231.43 95.7821 231.359 96.0314C231.288 96.2452 231.11 96.3877 230.896 96.3877C230.86 96.3877 230.825 96.3877 230.753 96.3521ZM100.961 95.8533C100.747 95.6752 100.712 95.3902 100.89 95.1764C101.068 94.9626 101.353 94.927 101.567 95.1051C101.781 95.2833 101.816 95.5683 101.638 95.782C101.531 95.9246 101.389 95.9602 101.246 95.9602C101.139 95.9602 101.032 95.9246 100.961 95.8533ZM102.564 93.8225C102.351 93.6444 102.351 93.3594 102.493 93.1456C102.671 92.9318 102.956 92.9318 103.17 93.0743C103.384 93.2525 103.384 93.5375 103.241 93.7513C103.134 93.8581 103.028 93.9294 102.885 93.9294C102.743 93.965 102.636 93.8938 102.564 93.8225ZM231.466 93.8938C231.217 93.8225 231.038 93.5731 231.11 93.3237C231.181 93.0743 231.43 92.8962 231.68 92.9674C231.929 93.0387 232.107 93.2881 232.036 93.5375C231.965 93.7513 231.787 93.8938 231.573 93.8938C231.537 93.8938 231.502 93.8938 231.466 93.8938ZM104.239 91.8986C104.061 91.7205 104.025 91.4354 104.203 91.2217C104.381 91.0079 104.666 91.0079 104.88 91.1861C105.094 91.3642 105.094 91.6492 104.916 91.863C104.809 91.9699 104.702 92.0411 104.56 92.0411C104.453 92.0055 104.346 91.9699 104.239 91.8986ZM232.036 91.3642C231.787 91.3286 231.609 91.0792 231.644 90.7941C231.68 90.5448 231.929 90.3666 232.214 90.4022C232.464 90.4379 232.642 90.6873 232.606 90.9723C232.57 91.2217 232.357 91.3642 232.143 91.3642C232.107 91.3998 232.072 91.3642 232.036 91.3642ZM105.949 89.9747C105.735 89.7966 105.735 89.5116 105.913 89.2978C106.092 89.084 106.377 89.084 106.59 89.2622C106.804 89.4403 106.804 89.7253 106.626 89.9391C106.519 90.046 106.412 90.1172 106.27 90.1172C106.163 90.0816 106.056 90.046 105.949 89.9747ZM232.464 88.8346C232.214 88.799 232 88.5496 232.036 88.3002C232.072 88.0508 232.321 87.837 232.57 87.8727C232.82 87.9083 233.034 88.1577 232.998 88.4071C232.962 88.6565 232.749 88.8346 232.535 88.8346C232.499 88.8346 232.499 88.8346 232.464 88.8346ZM107.659 88.0508C107.445 87.8727 107.445 87.5876 107.588 87.3739C107.766 87.1601 108.051 87.1601 108.265 87.3026C108.479 87.4808 108.479 87.7658 108.336 87.9795C108.229 88.0864 108.122 88.1577 107.98 88.1577C107.837 88.1577 107.73 88.1221 107.659 88.0508ZM232.749 86.2694C232.499 86.2338 232.285 86.02 232.321 85.7706C232.357 85.5212 232.57 85.3075 232.82 85.3431C233.069 85.3787 233.283 85.5925 233.283 85.8419C233.247 86.0913 233.069 86.2694 232.82 86.2694C232.784 86.2694 232.749 86.2694 232.749 86.2694ZM109.262 86.0556C109.049 85.9131 109.013 85.5925 109.156 85.3787C109.298 85.1649 109.619 85.1293 109.833 85.2718C110.046 85.4143 110.082 85.735 109.939 85.9488C109.833 86.0913 109.69 86.1269 109.547 86.1269C109.476 86.1269 109.369 86.0913 109.262 86.0556ZM110.759 83.9536C110.545 83.8111 110.474 83.5261 110.616 83.2767C110.759 83.0629 111.044 82.9916 111.293 83.1342C111.507 83.2767 111.578 83.5617 111.436 83.8111C111.329 83.9536 111.186 84.0249 111.044 84.0249C110.937 84.0249 110.866 83.9892 110.759 83.9536ZM232.891 83.7042C232.642 83.7042 232.428 83.4904 232.428 83.2054C232.428 82.956 232.642 82.7422 232.927 82.7422C233.176 82.7422 233.39 82.956 233.39 83.241C233.39 83.4904 233.176 83.7042 232.891 83.7042ZM112.113 81.7447C111.863 81.6378 111.792 81.3171 111.899 81.1034C112.041 80.854 112.326 80.7827 112.54 80.8896C112.79 81.0321 112.861 81.3171 112.754 81.5309C112.683 81.709 112.505 81.7803 112.326 81.7803C112.255 81.8159 112.184 81.7803 112.113 81.7447ZM232.428 80.6758C232.428 80.4264 232.642 80.177 232.891 80.177C233.141 80.177 233.39 80.3908 233.39 80.6402C233.39 80.8896 233.176 81.139 232.927 81.139C232.642 81.139 232.428 80.9252 232.428 80.6758ZM113.217 79.4289C112.968 79.322 112.825 79.0726 112.932 78.8232C113.039 78.5738 113.288 78.4313 113.538 78.5382C113.787 78.6451 113.894 78.8944 113.823 79.1438C113.752 79.322 113.573 79.4645 113.36 79.4645C113.324 79.4645 113.253 79.4289 113.217 79.4289ZM232.285 78.1463C232.25 77.8969 232.464 77.6475 232.713 77.6475C232.962 77.6118 233.212 77.8256 233.247 78.075C233.283 78.3244 233.069 78.5738 232.82 78.6094H232.784C232.499 78.5738 232.285 78.3957 232.285 78.1463ZM114.001 76.9705C113.752 76.8993 113.573 76.6499 113.645 76.4005C113.716 76.1511 113.965 75.973 114.215 76.0442C114.464 76.1155 114.642 76.3649 114.571 76.6143C114.535 76.828 114.322 77.0062 114.108 77.0062C114.072 77.0062 114.037 76.9705 114.001 76.9705ZM232 75.6167C231.965 75.3673 232.143 75.1179 232.428 75.0823C232.677 75.0466 232.927 75.2248 232.962 75.5098C232.998 75.7592 232.82 76.0086 232.535 76.0442C232.499 76.0442 232.499 76.0442 232.464 76.0442C232.25 76.0086 232.036 75.8304 232 75.6167ZM114.429 74.441C114.179 74.441 113.965 74.1916 113.965 73.9422C113.965 73.6928 114.215 73.479 114.464 73.479C114.714 73.479 114.927 73.7284 114.927 73.9778C114.927 74.2272 114.714 74.441 114.429 74.441ZM231.609 73.0871C231.573 72.8377 231.715 72.5883 232 72.5171C232.25 72.4814 232.499 72.6239 232.57 72.909C232.606 73.1584 232.464 73.4078 232.179 73.479C232.143 73.479 232.107 73.479 232.107 73.479C231.822 73.479 231.644 73.3009 231.609 73.0871ZM113.823 71.4839C113.787 71.2345 113.965 70.9851 114.215 70.9494C114.464 70.9138 114.714 71.0919 114.749 71.3413C114.785 71.5907 114.607 71.8401 114.357 71.8758C114.322 71.8758 114.322 71.8758 114.286 71.8758C114.072 71.8758 113.858 71.6976 113.823 71.4839ZM231.074 70.5932C231.003 70.3438 231.181 70.0944 231.43 70.0231C231.68 69.9519 231.965 70.13 232 70.3794C232.072 70.6288 231.894 70.9138 231.644 70.9494C231.609 70.9494 231.573 70.9494 231.537 70.9494C231.323 70.9494 231.11 70.8069 231.074 70.5932ZM113.253 69.0612C113.182 68.8118 113.288 68.5267 113.538 68.4555C113.787 68.3842 114.072 68.4911 114.143 68.7405C114.215 68.9899 114.108 69.2749 113.858 69.3462C113.823 69.3462 113.752 69.3818 113.716 69.3818C113.502 69.3818 113.288 69.2749 113.253 69.0612ZM230.397 68.1348C230.326 67.8854 230.468 67.6004 230.718 67.5292C230.967 67.4579 231.252 67.6004 231.323 67.8498C231.395 68.0992 231.252 68.3842 231.003 68.4555C230.967 68.4555 230.896 68.4911 230.86 68.4911C230.647 68.4911 230.468 68.3486 230.397 68.1348ZM112.255 66.781C112.148 66.5316 112.22 66.2466 112.469 66.1397C112.718 66.0328 113.003 66.104 113.11 66.3534C113.217 66.6028 113.146 66.8879 112.897 66.9947C112.825 67.0304 112.754 67.066 112.683 67.066C112.505 67.0304 112.326 66.9235 112.255 66.781ZM229.613 65.7121C229.542 65.4627 229.649 65.1777 229.898 65.1065C230.148 65.0352 230.433 65.1421 230.504 65.3915C230.575 65.6409 230.468 65.9259 230.219 65.9972C230.183 65.9972 230.112 66.0328 230.077 66.0328C229.898 66.0328 229.685 65.8903 229.613 65.7121ZM110.973 64.5721C110.83 64.3583 110.901 64.0376 111.115 63.8951C111.329 63.7526 111.65 63.8239 111.792 64.0376C111.935 64.2514 111.863 64.5721 111.65 64.7146C111.578 64.7858 111.471 64.7858 111.4 64.7858C111.222 64.8214 111.079 64.7146 110.973 64.5721ZM228.723 63.3251C228.616 63.0757 228.758 62.7907 228.972 62.6838C229.221 62.5769 229.506 62.7194 229.613 62.9332C229.72 63.1826 229.578 63.4676 229.364 63.5745C229.293 63.6101 229.257 63.6101 229.186 63.6101C229.008 63.6101 228.83 63.5032 228.723 63.3251ZM109.512 62.5056C109.369 62.2919 109.405 62.0068 109.619 61.8287C109.833 61.6862 110.118 61.7218 110.296 61.9356C110.438 62.1493 110.403 62.4344 110.189 62.6125C110.118 62.6838 110.011 62.7194 109.904 62.7194C109.761 62.6838 109.619 62.6481 109.512 62.5056ZM227.725 60.9736C227.618 60.7242 227.725 60.4392 227.974 60.3323C228.224 60.2254 228.509 60.3323 228.616 60.5817C228.723 60.8311 228.616 61.1161 228.366 61.223C228.295 61.2587 228.224 61.2587 228.153 61.2587C227.974 61.2587 227.796 61.1518 227.725 60.9736ZM107.944 60.4748C107.766 60.2611 107.802 59.9761 108.015 59.7979C108.229 59.6198 108.514 59.6554 108.692 59.8692C108.871 60.0829 108.835 60.368 108.621 60.5461C108.514 60.6174 108.443 60.653 108.336 60.653C108.194 60.653 108.051 60.5817 107.944 60.4748ZM226.621 58.6935C226.478 58.4441 226.585 58.159 226.834 58.0522C227.084 57.9096 227.369 58.0165 227.476 58.2659C227.618 58.5153 227.511 58.8003 227.262 58.9072C227.191 58.9428 227.119 58.9785 227.048 58.9785C226.87 58.9428 226.692 58.836 226.621 58.6935ZM106.341 58.4441C106.163 58.2303 106.198 57.9453 106.412 57.7671C106.626 57.589 106.911 57.6246 107.089 57.8384C107.267 58.0521 107.232 58.3372 107.018 58.5153C106.911 58.5866 106.84 58.6222 106.733 58.6222C106.59 58.6578 106.448 58.5866 106.341 58.4441ZM225.374 56.4489C225.231 56.2351 225.302 55.9145 225.552 55.8076C225.766 55.6651 226.086 55.7363 226.193 55.9857C226.336 56.1995 226.264 56.5201 226.015 56.627C225.944 56.6627 225.872 56.6983 225.766 56.6983C225.623 56.6983 225.445 56.627 225.374 56.4489ZM104.773 56.4133C104.631 56.1995 104.666 55.9145 104.88 55.7363C105.094 55.5938 105.379 55.6295 105.557 55.8432C105.7 56.057 105.664 56.342 105.45 56.5202C105.379 56.5914 105.272 56.627 105.165 56.627C105.023 56.5914 104.88 56.5201 104.773 56.4133ZM224.02 54.3112C223.877 54.0975 223.949 53.7768 224.162 53.6343C224.376 53.4918 224.697 53.563 224.839 53.7768C224.982 53.9906 224.91 54.3112 224.697 54.4537C224.625 54.525 224.519 54.525 224.447 54.525C224.269 54.525 224.127 54.4181 224.02 54.3112ZM103.313 54.2756C103.17 54.0618 103.241 53.7412 103.455 53.5987C103.669 53.4562 103.99 53.5274 104.132 53.7412C104.275 53.9549 104.203 54.2756 103.99 54.4181C103.918 54.4537 103.811 54.4894 103.74 54.4894C103.562 54.4894 103.384 54.4181 103.313 54.2756ZM222.559 52.2092C222.417 51.9954 222.452 51.7104 222.666 51.5323C222.88 51.3897 223.165 51.4254 223.343 51.6391C223.485 51.8529 223.45 52.1379 223.236 52.3161C223.165 52.3873 223.058 52.423 222.951 52.423C222.808 52.3873 222.666 52.3161 222.559 52.2092ZM101.994 51.9954C101.888 51.746 101.959 51.461 102.208 51.3541C102.458 51.2472 102.743 51.3185 102.849 51.5679C102.956 51.8173 102.885 52.1023 102.636 52.2092C102.564 52.2448 102.493 52.2804 102.422 52.2804C102.244 52.2448 102.066 52.1736 101.994 51.9954ZM220.991 50.1784C220.813 49.9646 220.849 49.6796 221.063 49.5015C221.276 49.3233 221.561 49.359 221.74 49.5727C221.918 49.7865 221.882 50.0715 221.668 50.2496C221.561 50.3209 221.455 50.3565 221.348 50.3565C221.241 50.3565 221.098 50.3209 220.991 50.1784ZM100.89 49.644C100.783 49.3946 100.89 49.1096 101.139 49.0027C101.389 48.8958 101.674 49.0027 101.781 49.2521C101.888 49.5015 101.781 49.7865 101.531 49.8934C101.46 49.929 101.424 49.929 101.353 49.929C101.139 49.929 100.961 49.8221 100.89 49.644ZM219.353 48.2545C219.174 48.0763 219.174 47.7557 219.388 47.5776C219.566 47.3994 219.887 47.3994 220.065 47.6132C220.243 47.7913 220.243 48.112 220.029 48.2901C219.923 48.3614 219.816 48.4326 219.709 48.4326C219.566 48.4326 219.424 48.3614 219.353 48.2545ZM99.9992 47.1857C99.928 46.9363 100.07 46.6512 100.32 46.58C100.569 46.5087 100.854 46.6512 100.926 46.9006C100.997 47.15 100.854 47.435 100.605 47.5063C100.569 47.5063 100.498 47.5419 100.462 47.5419C100.249 47.5063 100.035 47.3994 99.9992 47.1857ZM217.571 46.4375C217.393 46.2593 217.393 45.9387 217.571 45.7605C217.749 45.5824 218.07 45.5824 218.248 45.7605C218.426 45.9387 218.426 46.2593 218.248 46.4375C218.141 46.5443 218.034 46.58 217.892 46.58C217.785 46.5444 217.678 46.5087 217.571 46.4375ZM99.2867 44.6561C99.2154 44.4067 99.3936 44.1573 99.6429 44.086C99.8923 44.0148 100.142 44.1929 100.213 44.4423C100.284 44.6917 100.106 44.9411 99.8567 45.0124C99.8211 45.0124 99.7855 45.0124 99.7498 45.0124C99.5361 45.048 99.3223 44.9055 99.2867 44.6561ZM215.718 44.6917C215.505 44.5136 215.505 44.2285 215.683 44.0148C215.861 43.801 216.146 43.801 216.36 43.9791C216.574 44.1573 216.574 44.4423 216.395 44.6561C216.289 44.763 216.182 44.8342 216.039 44.8342C215.932 44.7986 215.825 44.763 215.718 44.6917ZM213.759 43.0172C213.545 42.8391 213.545 42.554 213.688 42.3403C213.866 42.1265 214.151 42.1265 214.365 42.269C214.578 42.4471 214.578 42.7322 214.436 42.9459C214.329 43.0528 214.222 43.1241 214.08 43.1241C213.973 43.1241 213.866 43.0885 213.759 43.0172ZM98.7879 42.0909C98.7523 41.8415 98.9304 41.5921 99.1798 41.5564C99.4292 41.5208 99.6786 41.699 99.7142 41.9484C99.7498 42.1978 99.5717 42.4472 99.3223 42.4828C99.2867 42.4828 99.2867 42.4828 99.251 42.4828C99.0373 42.5184 98.8235 42.3403 98.7879 42.0909ZM211.799 41.3427C211.586 41.1646 211.586 40.8795 211.728 40.6658C211.906 40.452 212.191 40.452 212.405 40.6301C212.619 40.8083 212.619 41.0933 212.441 41.3071C212.334 41.4139 212.227 41.4852 212.084 41.4852C212.013 41.4852 211.906 41.4496 211.799 41.3427ZM98.5029 39.49C98.4672 39.2406 98.681 38.9912 98.966 38.9912C99.2154 38.9556 99.4648 39.1694 99.4648 39.4544C99.4648 39.7038 99.2867 39.9532 99.0016 39.9532H98.966C98.7523 39.9532 98.5385 39.7394 98.5029 39.49ZM209.876 39.6325C209.697 39.4544 209.662 39.1338 209.84 38.9556C210.018 38.7775 210.339 38.7419 210.517 38.92C210.695 39.0981 210.731 39.4188 210.552 39.5969C210.446 39.7038 210.339 39.7394 210.196 39.7394C210.089 39.7751 209.947 39.7038 209.876 39.6325ZM208.023 37.7799C207.845 37.5661 207.88 37.2811 208.059 37.103C208.272 36.9248 208.557 36.9605 208.735 37.1386C208.914 37.3524 208.878 37.6374 208.7 37.8155C208.593 37.8868 208.486 37.9224 208.379 37.9224C208.272 37.9224 208.13 37.8868 208.023 37.7799ZM98.9304 37.388C98.681 37.388 98.4672 37.1742 98.4672 36.8892C98.4672 36.6398 98.681 36.426 98.966 36.426C99.2154 36.426 99.4292 36.6398 99.4292 36.9248C99.3936 37.1742 99.1798 37.388 98.9304 37.388ZM206.384 35.7135C206.241 35.4997 206.277 35.1791 206.527 35.0366C206.74 34.894 207.025 34.9297 207.203 35.1791C207.346 35.3928 207.31 35.7135 207.061 35.856C206.99 35.9272 206.883 35.9272 206.776 35.9272C206.633 35.8916 206.491 35.8204 206.384 35.7135ZM99.0373 34.8228C98.7879 34.7872 98.5741 34.5734 98.6097 34.2884C98.6454 34.039 98.8591 33.8252 99.1442 33.8608C99.3936 33.8965 99.6073 34.1102 99.5717 34.3953C99.5361 34.6447 99.3223 34.8228 99.1085 34.8228C99.0729 34.8228 99.0729 34.8228 99.0373 34.8228ZM205.101 33.362C204.995 33.1127 205.101 32.8276 205.351 32.7207C205.6 32.6139 205.885 32.7207 205.992 32.9701C206.099 33.2195 205.992 33.5046 205.743 33.6114C205.671 33.6471 205.6 33.6471 205.565 33.6471C205.351 33.6827 205.173 33.5758 205.101 33.362ZM99.3936 32.2576C99.1442 32.222 98.966 31.9369 99.0016 31.6875C99.0373 31.4381 99.3223 31.26 99.5717 31.2956C99.8211 31.3669 99.9992 31.6163 99.9636 31.8657C99.928 32.0794 99.7142 32.2576 99.5004 32.2576C99.4292 32.2576 99.3936 32.2576 99.3936 32.2576ZM138.584 30.8681C138.584 30.6187 138.762 30.3693 139.047 30.3693C139.297 30.3693 139.546 30.5474 139.546 30.8325C139.546 31.0819 139.368 31.3313 139.083 31.3313C139.083 31.3313 139.083 31.3313 139.047 31.3313C138.834 31.3313 138.62 31.1531 138.584 30.8681ZM204.282 30.8325C204.246 30.5831 204.389 30.3337 204.674 30.2624C204.923 30.2268 205.173 30.3693 205.244 30.6543C205.28 30.9037 205.137 31.1531 204.852 31.2244C204.816 31.2244 204.781 31.2244 204.745 31.2244C204.531 31.2244 204.353 31.0462 204.282 30.8325ZM136.447 31.1887C136.197 31.1531 136.019 30.9037 136.055 30.6543C136.09 30.4049 136.34 30.2268 136.589 30.2624C136.838 30.2981 137.017 30.5474 136.981 30.7968C136.945 31.0462 136.732 31.1887 136.518 31.1887C136.482 31.1887 136.482 31.1887 136.447 31.1887ZM141.149 30.5831C141.078 30.3337 141.256 30.0487 141.506 30.013C141.755 29.9418 142.04 30.0843 142.076 30.3693C142.147 30.6187 141.969 30.9037 141.719 30.9394C141.684 30.9394 141.648 30.9394 141.613 30.9394C141.399 30.975 141.221 30.8325 141.149 30.5831ZM133.881 30.5831C133.632 30.5118 133.489 30.2268 133.561 29.9774C133.632 29.728 133.917 29.5855 134.166 29.6567C134.416 29.728 134.558 30.013 134.487 30.2624C134.416 30.4762 134.238 30.5831 134.024 30.5831C133.953 30.5831 133.917 30.5831 133.881 30.5831ZM143.608 29.7993C143.501 29.5499 143.608 29.2648 143.857 29.158C144.107 29.0511 144.392 29.158 144.498 29.4074C144.605 29.6567 144.498 29.9418 144.249 30.0487C144.178 30.0843 144.107 30.0843 144.035 30.0843C143.857 30.0843 143.679 29.9774 143.608 29.7993ZM99.9636 29.7636C99.7142 29.6924 99.5717 29.4074 99.6429 29.158C99.7142 28.9086 99.9992 28.7661 100.249 28.8373C100.498 28.9086 100.641 29.1936 100.569 29.443C100.498 29.6567 100.32 29.7636 100.106 29.7636C100.07 29.7993 100.035 29.7636 99.9636 29.7636ZM131.423 29.5855C131.174 29.4786 131.067 29.1936 131.209 28.9442C131.316 28.6948 131.601 28.5879 131.851 28.7304C132.1 28.8373 132.207 29.1223 132.064 29.3717C131.993 29.5499 131.815 29.6567 131.637 29.6567C131.566 29.6211 131.494 29.6211 131.423 29.5855ZM145.888 28.6235C145.745 28.4098 145.817 28.0891 146.03 27.9466C146.244 27.8041 146.565 27.8754 146.707 28.0891C146.85 28.3029 146.779 28.6235 146.565 28.7661C146.494 28.8017 146.387 28.8373 146.315 28.8373C146.137 28.8373 145.959 28.7661 145.888 28.6235ZM204.033 28.196C204.033 27.9466 204.246 27.6972 204.496 27.6972C204.745 27.6972 204.959 27.911 204.994 28.1604C204.994 28.4098 204.781 28.6235 204.531 28.6592C204.246 28.6592 204.033 28.4454 204.033 28.196ZM129.107 28.3741C128.893 28.2316 128.787 27.9466 128.929 27.7328C129.072 27.5191 129.357 27.4122 129.57 27.5547C129.784 27.6972 129.891 27.9822 129.748 28.196C129.642 28.3385 129.499 28.4454 129.321 28.4454C129.285 28.4454 129.178 28.4098 129.107 28.3741ZM100.89 27.3409C100.641 27.2341 100.534 26.949 100.676 26.6996C100.783 26.4502 101.068 26.3434 101.317 26.4859C101.567 26.5928 101.674 26.8778 101.531 27.1272C101.46 27.3053 101.282 27.4122 101.104 27.4122C100.997 27.3766 100.926 27.3766 100.89 27.3409ZM147.99 27.1628C147.812 26.949 147.847 26.664 148.061 26.4859C148.275 26.3077 148.56 26.3434 148.738 26.5571C148.916 26.7709 148.881 27.0559 148.667 27.2341C148.56 27.3053 148.453 27.3409 148.346 27.3409C148.204 27.3409 148.097 27.2697 147.99 27.1628ZM126.898 27.0203C126.684 26.8778 126.613 26.5928 126.756 26.3434C126.898 26.1296 127.183 26.0583 127.433 26.2008C127.646 26.3434 127.718 26.6284 127.575 26.8778C127.468 27.0203 127.326 27.0915 127.183 27.0915C127.076 27.0915 126.97 27.0559 126.898 27.0203ZM204.638 26.094C204.389 26.0583 204.175 25.8089 204.211 25.5595C204.246 25.3102 204.496 25.0964 204.745 25.132C204.995 25.1676 205.208 25.417 205.173 25.6664C205.137 25.9158 204.923 26.094 204.709 26.094C204.674 26.094 204.638 26.094 204.638 26.094ZM124.725 25.5952C124.511 25.4527 124.44 25.132 124.582 24.9182C124.725 24.7045 125.046 24.6332 125.259 24.7757C125.473 24.9182 125.544 25.2389 125.402 25.4527C125.295 25.5952 125.152 25.6664 125.01 25.6664C124.903 25.6664 124.832 25.6664 124.725 25.5952ZM149.914 25.4527C149.736 25.2745 149.736 24.9539 149.914 24.7757C150.092 24.5976 150.413 24.5976 150.591 24.7757C150.769 24.9539 150.769 25.2745 150.591 25.4527C150.484 25.5595 150.377 25.5952 150.235 25.5952C150.128 25.5952 150.021 25.5595 149.914 25.4527ZM102.101 25.0964C101.888 24.9539 101.816 24.6332 101.959 24.4195C102.101 24.2057 102.422 24.1344 102.636 24.2769C102.849 24.4195 102.921 24.7401 102.743 24.9539C102.636 25.0964 102.493 25.1676 102.351 25.1676C102.279 25.1676 102.173 25.132 102.101 25.0964ZM122.587 24.2057C122.374 24.0632 122.302 23.7782 122.445 23.5288C122.587 23.315 122.872 23.2437 123.122 23.3862C123.335 23.5288 123.407 23.8138 123.264 24.0632C123.157 24.2057 123.015 24.2769 122.872 24.2769C122.765 24.2769 122.694 24.2413 122.587 24.2057ZM151.695 23.6C151.481 23.4219 151.481 23.1369 151.66 22.9231C151.838 22.7093 152.123 22.7093 152.337 22.8875C152.55 23.0656 152.55 23.3506 152.372 23.5644C152.265 23.6713 152.158 23.7425 152.016 23.7425C151.873 23.7069 151.766 23.6713 151.695 23.6ZM204.994 23.5644C204.745 23.5288 204.567 23.2794 204.603 22.9943C204.638 22.7449 204.888 22.5668 205.173 22.6024C205.422 22.6381 205.6 22.8875 205.565 23.1725C205.529 23.3862 205.315 23.5644 205.101 23.5644C205.066 23.5644 205.03 23.5644 204.994 23.5644ZM103.669 23.03C103.491 22.8518 103.491 22.5312 103.669 22.353C103.847 22.1749 104.168 22.1749 104.346 22.353C104.524 22.5312 104.524 22.8518 104.346 23.03C104.239 23.1369 104.132 23.1725 103.99 23.1725C103.883 23.1725 103.776 23.1369 103.669 23.03ZM120.414 22.8875C120.2 22.7449 120.093 22.4599 120.236 22.2462C120.378 21.9968 120.663 21.9255 120.877 22.068C121.091 22.2105 121.198 22.4956 121.055 22.7093C120.984 22.8518 120.806 22.9587 120.628 22.9587C120.557 22.9587 120.485 22.9231 120.414 22.8875ZM118.169 21.7474C117.92 21.6405 117.813 21.3555 117.92 21.1061C118.027 20.8567 118.312 20.7498 118.561 20.8567C118.811 20.9636 118.918 21.2486 118.811 21.498C118.739 21.6761 118.561 21.783 118.383 21.783C118.276 21.783 118.241 21.783 118.169 21.7474ZM153.334 21.6049C153.12 21.4267 153.085 21.1417 153.263 20.9279C153.441 20.7142 153.726 20.6785 153.94 20.8567C154.154 21.0348 154.189 21.3198 154.011 21.5336C153.904 21.6405 153.762 21.7117 153.619 21.7117C153.548 21.7117 153.441 21.6761 153.334 21.6049ZM105.628 21.3911C105.486 21.1773 105.557 20.8567 105.771 20.7142C105.985 20.5716 106.305 20.6429 106.448 20.8567C106.59 21.0704 106.519 21.3911 106.305 21.5336C106.234 21.5692 106.127 21.6049 106.056 21.6049C105.878 21.6049 105.7 21.5336 105.628 21.3911ZM205.458 21.0348C205.208 20.9992 205.03 20.7498 205.066 20.4648C205.101 20.2154 205.351 20.0372 205.636 20.0729C205.885 20.1085 206.063 20.3579 206.028 20.6429C205.992 20.8923 205.778 21.0348 205.565 21.0348C205.529 21.0348 205.493 21.0348 205.458 21.0348ZM115.818 20.821C115.569 20.7498 115.426 20.4648 115.497 20.2154C115.569 19.966 115.854 19.8235 116.103 19.8947C116.352 19.966 116.495 20.251 116.424 20.5004C116.352 20.7142 116.174 20.821 115.961 20.821C115.925 20.8567 115.854 20.8567 115.818 20.821ZM107.909 20.2154C107.837 19.966 107.98 19.6809 108.229 19.6097C108.479 19.5384 108.764 19.6809 108.835 19.9303C108.906 20.1797 108.764 20.4648 108.514 20.536C108.479 20.536 108.407 20.5716 108.372 20.5716C108.158 20.5716 107.98 20.4291 107.909 20.2154ZM113.395 20.251C113.146 20.2154 112.968 19.966 113.003 19.7166C113.039 19.4672 113.288 19.289 113.538 19.3247C113.787 19.3603 113.965 19.6097 113.93 19.8591C113.894 20.1085 113.68 20.251 113.467 20.251C113.431 20.251 113.395 20.251 113.395 20.251ZM110.403 19.681C110.403 19.4316 110.581 19.1822 110.866 19.1822C111.115 19.1822 111.365 19.3603 111.365 19.6453C111.365 19.8947 111.186 20.1441 110.901 20.1441C110.901 20.1441 110.901 20.1441 110.866 20.1441C110.652 20.1085 110.438 19.9303 110.403 19.681ZM154.937 19.6097C154.724 19.4316 154.688 19.1465 154.866 18.9328C155.044 18.719 155.329 18.6834 155.543 18.8615C155.757 19.0396 155.792 19.3247 155.614 19.5384C155.507 19.6453 155.365 19.7166 155.222 19.7166C155.151 19.7166 155.044 19.6809 154.937 19.6097ZM205.885 18.4696C205.636 18.434 205.422 18.2202 205.458 17.9352C205.493 17.6858 205.743 17.472 205.992 17.5076C206.241 17.5433 206.455 17.7927 206.42 18.0421C206.384 18.2915 206.17 18.4696 205.956 18.4696C205.921 18.4696 205.885 18.4696 205.885 18.4696ZM156.541 17.5789C156.327 17.4008 156.291 17.1157 156.469 16.902C156.648 16.6882 156.933 16.6526 157.146 16.8307C157.36 17.0089 157.396 17.2939 157.218 17.5076C157.111 17.6145 156.968 17.6858 156.861 17.6858C156.754 17.6858 156.648 17.6502 156.541 17.5789ZM205.6 15.4412C205.6 15.1918 205.814 14.9424 206.063 14.9424C206.313 14.9424 206.562 15.1562 206.562 15.4056C206.562 15.655 206.348 15.9044 206.099 15.9044C205.814 15.9044 205.6 15.6906 205.6 15.4412ZM158.215 15.6194C158.001 15.4412 158.001 15.1562 158.18 14.9424C158.358 14.7643 158.643 14.7287 158.856 14.9068C159.07 15.085 159.07 15.37 158.892 15.5837C158.785 15.6906 158.678 15.7263 158.536 15.7263C158.393 15.7619 158.286 15.6906 158.215 15.6194ZM159.961 13.7311C159.783 13.553 159.783 13.2323 159.961 13.0542C160.139 12.876 160.46 12.876 160.638 13.0542C160.816 13.2323 160.816 13.553 160.638 13.7311C160.531 13.838 160.424 13.8736 160.317 13.8736C160.175 13.8736 160.068 13.838 159.961 13.7311ZM205.351 12.9829C205.28 12.7335 205.458 12.4841 205.707 12.4129C205.956 12.3416 206.206 12.5198 206.277 12.7691C206.348 13.0185 206.17 13.2679 205.921 13.3392C205.885 13.3392 205.85 13.3392 205.814 13.3392C205.6 13.3748 205.386 13.1967 205.351 12.9829ZM161.814 11.9853C161.635 11.7716 161.671 11.4865 161.849 11.3084C162.063 11.1303 162.348 11.1659 162.526 11.344C162.704 11.5578 162.669 11.8428 162.49 12.021C162.384 12.0922 162.277 12.1278 162.17 12.1278C162.063 12.1278 161.92 12.0922 161.814 11.9853ZM204.567 10.6315C204.46 10.3821 204.567 10.0971 204.816 9.99017C205.066 9.88329 205.351 9.99017 205.458 10.2396C205.565 10.489 205.458 10.774 205.208 10.8809C205.137 10.9165 205.066 10.9165 205.03 10.9165C204.816 10.9165 204.674 10.8096 204.567 10.6315ZM163.809 10.3108C163.666 10.0971 163.702 9.81203 163.916 9.63389C164.129 9.45575 164.414 9.52701 164.593 9.70515C164.771 9.91892 164.699 10.2039 164.521 10.3821C164.45 10.4533 164.343 10.489 164.236 10.489C164.022 10.5246 163.88 10.4533 163.809 10.3108ZM165.875 8.77882C165.733 8.56506 165.768 8.24441 166.018 8.1019C166.231 7.95938 166.552 7.99501 166.695 8.24441C166.837 8.45817 166.801 8.77882 166.552 8.92134C166.481 8.99259 166.374 8.99259 166.267 8.99259C166.125 8.99259 165.946 8.92134 165.875 8.77882ZM203.356 8.4938C203.213 8.28004 203.249 7.99501 203.463 7.81687C203.676 7.67436 203.961 7.70999 204.139 7.92376C204.282 8.13752 204.246 8.42255 204.033 8.60068C203.961 8.67194 203.854 8.67194 203.748 8.67194C203.605 8.67194 203.427 8.60069 203.356 8.4938ZM168.013 7.38934C167.87 7.17557 167.942 6.85492 168.191 6.71241C168.405 6.5699 168.725 6.64115 168.868 6.89055C169.01 7.10432 168.939 7.42497 168.69 7.56748C168.618 7.60311 168.512 7.63873 168.44 7.63873C168.262 7.60311 168.12 7.53185 168.013 7.38934ZM201.752 6.60553C201.574 6.42739 201.574 6.10674 201.752 5.9286C201.931 5.75046 202.251 5.75046 202.429 5.9286C202.607 6.10674 202.607 6.42739 202.429 6.60553C202.322 6.71241 202.216 6.74804 202.073 6.74804C201.966 6.71241 201.824 6.67678 201.752 6.60553ZM170.257 6.10674C170.15 5.85734 170.222 5.57232 170.471 5.46543C170.721 5.32292 171.006 5.42981 171.112 5.6792C171.219 5.9286 171.148 6.21362 170.899 6.3205C170.827 6.35613 170.756 6.39176 170.685 6.39176C170.507 6.35613 170.329 6.28488 170.257 6.10674ZM172.573 4.96664C172.466 4.71725 172.573 4.43223 172.823 4.32534C173.072 4.21846 173.357 4.32534 173.464 4.57474C173.571 4.82413 173.464 5.10916 173.214 5.21604C173.143 5.25167 173.072 5.25167 173.036 5.25167C172.823 5.25167 172.644 5.14478 172.573 4.96664ZM199.828 5.00227C199.615 4.85976 199.579 4.53911 199.722 4.32534C199.864 4.11158 200.185 4.07595 200.399 4.21846C200.612 4.36097 200.648 4.68162 200.505 4.89539C200.399 5.0379 200.256 5.10916 200.114 5.10916C200.007 5.07353 199.9 5.0379 199.828 5.00227ZM174.925 3.96906C174.818 3.71967 174.96 3.43465 175.21 3.36339C175.459 3.25651 175.744 3.39902 175.815 3.64841C175.922 3.89781 175.78 4.18283 175.53 4.25409C175.459 4.28972 175.423 4.28971 175.352 4.28971C175.174 4.25409 174.996 4.1472 174.925 3.96906ZM197.691 3.68404C197.441 3.57716 197.37 3.25651 197.477 3.04274C197.584 2.79334 197.905 2.72209 198.118 2.82897C198.368 2.93586 198.439 3.22088 198.332 3.47027C198.261 3.64841 198.083 3.71967 197.905 3.71967C197.833 3.7553 197.762 3.71967 197.691 3.68404ZM177.347 3.114C177.276 2.8646 177.419 2.57958 177.668 2.50832C177.917 2.43707 178.202 2.57958 178.274 2.82897C178.345 3.07837 178.202 3.36339 177.953 3.43465C177.917 3.43465 177.846 3.47027 177.81 3.47027C177.597 3.43465 177.419 3.29213 177.347 3.114ZM195.375 2.75772C195.126 2.68646 194.983 2.40144 195.054 2.15204C195.126 1.90265 195.411 1.76014 195.66 1.83139C195.909 1.90265 196.052 2.18767 195.981 2.43707C195.909 2.65083 195.731 2.75772 195.518 2.75772C195.482 2.75772 195.446 2.75772 195.375 2.75772ZM179.841 2.40144C179.77 2.15204 179.948 1.86702 180.198 1.83139C180.447 1.76014 180.696 1.93828 180.768 2.18767C180.839 2.43707 180.661 2.68646 180.411 2.75772C180.376 2.75772 180.34 2.75772 180.304 2.75772C180.091 2.75772 179.877 2.61521 179.841 2.40144ZM182.335 1.83139C182.3 1.582 182.478 1.3326 182.727 1.26135C182.976 1.22572 183.226 1.40386 183.297 1.65325C183.333 1.90265 183.155 2.15204 182.905 2.2233C182.87 2.2233 182.834 2.2233 182.834 2.2233C182.585 2.2233 182.371 2.04516 182.335 1.83139ZM192.952 2.11642C192.703 2.08079 192.525 1.83139 192.56 1.54637C192.596 1.29698 192.881 1.11884 193.13 1.15446C193.38 1.19009 193.558 1.47511 193.522 1.72451C193.487 1.93828 193.273 2.11642 193.059 2.11642C193.024 2.11642 192.988 2.11642 192.952 2.11642ZM184.865 1.43949C184.829 1.19009 185.043 0.940696 185.292 0.905068C185.542 0.86944 185.791 1.08321 185.827 1.3326C185.862 1.582 185.649 1.83139 185.399 1.86702H185.364C185.114 1.86702 184.9 1.68888 184.865 1.43949ZM190.458 1.79576C190.209 1.76014 189.995 1.54637 190.031 1.26135C190.066 1.01195 190.28 0.798186 190.53 0.833813C190.779 0.869441 190.993 1.08321 190.957 1.3326C190.957 1.582 190.743 1.79576 190.458 1.79576C190.494 1.79576 190.458 1.79576 190.458 1.79576ZM187.43 1.22572C187.43 0.976324 187.644 0.726929 187.893 0.726929C188.143 0.726929 188.392 0.940697 188.392 1.19009C188.392 1.43949 188.178 1.68888 187.929 1.68888C187.679 1.68888 187.466 1.51074 187.43 1.22572Z" fill="#7048A3"/>
<path d="M205.244 127.206C205.173 127.206 205.101 127.206 205.066 127.17C204.995 127.135 204.959 127.099 204.923 127.063C204.816 126.957 204.781 126.85 204.781 126.707C204.781 126.565 204.816 126.458 204.923 126.351C205.101 126.173 205.422 126.173 205.6 126.351C205.707 126.458 205.743 126.565 205.743 126.707C205.743 126.85 205.707 126.957 205.6 127.063C205.493 127.17 205.351 127.206 205.244 127.206Z" fill="#7048A3"/>
<path d="M210.161 72.0539C204.888 66.9591 206.063 58.0521 202.109 51.8885C201.396 50.784 200.47 49.7508 199.294 49.1808C198.118 48.6107 196.586 48.6107 195.553 49.3946C194.271 50.3209 193.985 52.1735 194.342 53.7055C194.698 55.2375 195.624 56.5914 196.408 57.9452C199.258 62.8263 200.755 68.598 199.864 74.1559C198.902 80.1058 195.375 85.45 194.841 91.4354C194.449 95.5683 195.589 99.7367 197.441 103.442C199.294 107.147 201.895 110.461 204.638 113.596C203.356 110.283 203.748 106.363 204.531 102.872C205.315 99.4161 206.883 96.1383 208.664 93.0743C210.624 89.6897 212.904 86.4119 213.866 82.6353C214.792 78.8588 212.94 74.7616 210.161 72.0539Z" fill="url(#paint2_linear)"/>
<path opacity="0.2" d="M210.161 72.0539C204.888 66.9591 206.063 58.0521 202.109 51.8885C201.396 50.784 200.47 49.7508 199.294 49.1808C198.118 48.6107 196.586 48.6107 195.553 49.3946C194.271 50.3209 193.985 52.1735 194.342 53.7055C194.698 55.2375 195.624 56.5914 196.408 57.9452C199.258 62.8263 200.755 68.598 199.864 74.1559C198.902 80.1058 195.375 85.45 194.841 91.4354C194.449 95.5683 195.589 99.7367 197.441 103.442C199.294 107.147 201.895 110.461 204.638 113.596C203.356 110.283 203.748 106.363 204.531 102.872C205.315 99.4161 206.883 96.1383 208.664 93.0743C210.624 89.6897 212.904 86.4119 213.866 82.6353C214.792 78.8588 212.94 74.7616 210.161 72.0539Z" fill="black"/>
<path opacity="0.2" d="M206.562 65.819C206.313 70.2725 204.14 74.619 201.752 78.5025C199.294 82.4572 196.48 86.3406 194.912 90.6872C194.876 90.9366 194.841 91.186 194.805 91.4354C194.413 95.5682 195.553 99.7367 197.406 103.442C199.259 107.147 201.859 110.461 204.603 113.596C203.32 110.283 203.712 106.363 204.496 102.872C205.28 99.416 206.847 96.1383 208.629 93.0743C210.588 89.6896 212.868 86.4119 213.83 82.6353C214.792 78.8588 212.94 74.7616 210.125 72.0538C208.344 70.3437 207.31 68.1704 206.562 65.819Z" fill="black"/>
<path d="M209.092 108.929C207.738 100.378 207.382 91.6848 208.13 83.0629C208.522 78.2531 209.341 73.3009 212.12 69.3462C214.186 66.4603 217.215 64.2514 218.818 61.1161C221.668 55.5226 219.424 48.2901 222.523 42.8747C223.628 40.9151 225.801 39.2406 228.01 39.7751C230.255 40.3451 231.323 42.9816 231.359 45.2617C231.43 51.8885 225.801 57.2327 224.661 63.7526C223.521 70.2725 227.048 76.6143 227.725 83.2054C228.331 88.8346 226.834 94.5351 224.34 99.6298C221.846 104.725 218.391 109.285 214.863 113.703C212.156 113.275 209.555 111.708 209.092 108.929Z" fill="url(#paint3_linear)"/>
<path opacity="0.2" d="M209.092 108.929C207.738 100.378 207.382 91.6848 208.13 83.0629C208.522 78.2531 209.341 73.3009 212.12 69.3462C214.186 66.4603 217.215 64.2514 218.818 61.1161C221.668 55.5226 219.424 48.2901 222.523 42.8747C223.628 40.9151 225.801 39.2406 228.01 39.7751C230.255 40.3451 231.323 42.9816 231.359 45.2617C231.43 51.8885 225.801 57.2327 224.661 63.7526C223.521 70.2725 227.048 76.6143 227.725 83.2054C228.331 88.8346 226.834 94.5351 224.34 99.6298C221.846 104.725 218.391 109.285 214.863 113.703C212.156 113.275 209.555 111.708 209.092 108.929Z" fill="black"/>
<path opacity="0.2" d="M218.569 61.6149C216.894 64.5364 214.08 66.6385 212.12 69.3818C209.341 73.3009 208.522 78.2888 208.13 83.0985C207.524 90.1528 207.631 97.2428 208.45 104.261C209.626 107.29 211.016 110.247 212.583 113.062C213.296 113.382 214.115 113.596 214.899 113.738C215.932 112.456 216.93 111.173 217.927 109.855C221.241 103.905 223.842 97.5991 224.554 90.8654C225.623 80.8183 222.417 70.9851 218.569 61.6149Z" fill="black"/>
<path d="M205.066 113.311C199.472 111.066 196.729 104.44 197.05 98.4186C197.406 92.3975 200.185 86.8395 202.821 81.4597C205.458 76.0443 208.094 70.3795 208.094 64.3584C208.094 57.5891 204.781 51.2473 204.104 44.5136C203.57 39.312 204.674 33.9678 207.239 29.4074C208.237 27.5904 209.662 25.7734 211.693 25.3102C214.65 24.6333 217.5 27.2698 218.248 30.2269C218.961 33.1483 218.141 36.248 217.393 39.1695C216.039 44.3711 214.828 49.7153 215.327 55.0595C215.897 61.2231 218.711 66.9236 220.421 72.8734C224.519 87.2314 221.811 103.371 213.26 115.591C210.41 114.879 207.774 114.38 205.066 113.311Z" fill="url(#paint4_linear)"/>
<path opacity="0.1" d="M220.849 80.1414C220.528 79.9989 220.136 80.1414 219.994 80.462C218.64 83.4191 216.68 86.1269 214.293 88.3358C214.436 87.7657 214.578 87.1957 214.685 86.59C216.003 79.7851 215.042 72.9446 213.901 67.1016C213.795 66.6028 213.723 66.1396 213.616 65.6409C214.543 64.1801 215.362 62.6481 216.075 61.0805C216.217 60.7598 216.075 60.3679 215.754 60.2254C215.433 60.0829 215.042 60.2254 214.899 60.5461C214.4 61.6505 213.83 62.7194 213.225 63.7882C213.082 63.1113 212.939 62.4343 212.797 61.7574C211.835 57.3039 210.873 52.7079 210.481 48.112C210.267 45.4755 210.267 43.0172 210.481 40.7014C212.441 38.9556 214.329 37.1029 216.11 35.2147C216.36 34.9653 216.324 34.5377 216.075 34.324C215.825 34.0746 215.398 34.1102 215.184 34.3596C213.759 35.8916 212.263 37.3523 210.731 38.7774C211.229 35.3928 212.227 32.3644 213.723 29.728C213.901 29.4073 213.795 29.0154 213.474 28.8373C213.153 28.6591 212.761 28.766 212.583 29.0867C209.947 33.7183 208.771 39.4544 209.056 46.188C208.058 44.9054 206.918 43.7297 205.707 42.6609C205.458 42.4115 205.03 42.4471 204.816 42.6965C204.567 42.9459 204.603 43.3734 204.852 43.5872C206.491 45.048 207.952 46.6868 209.199 48.5039C209.59 53.0998 210.588 57.6246 211.514 62.0424C211.871 63.7882 212.263 65.5696 212.619 67.351C213.331 71.0563 214.008 75.1891 214.008 79.4288C212.69 76.7567 210.98 74.2628 208.985 72.0539C208.735 71.8045 208.343 71.7688 208.094 72.0182C207.845 72.2676 207.809 72.6595 208.058 72.9089C210.552 75.6523 212.512 78.7875 213.901 82.2434C213.901 82.2791 213.937 82.2791 213.937 82.3147C213.83 83.6685 213.688 84.9868 213.438 86.3406C213.189 87.552 212.904 88.7277 212.548 89.9034C212.512 89.9747 212.512 90.0459 212.476 90.1172C211.835 92.1836 211.051 94.25 210.303 96.2452C209.875 97.3496 209.448 98.4897 209.056 99.6298C206.847 95.497 205.03 91.1148 203.676 86.6257C203.569 86.2694 203.213 86.0912 202.892 86.1981C202.536 86.305 202.358 86.6613 202.465 86.9819C203.961 91.9342 205.992 96.744 208.486 101.269C207.239 105.045 206.135 109.677 206.847 114.273C206.883 114.594 207.168 114.807 207.488 114.807C207.524 114.807 207.56 114.807 207.595 114.807C207.952 114.736 208.201 114.415 208.13 114.059C207.382 109.142 208.842 104.119 210.196 100.307C210.624 99.0954 211.087 97.8841 211.55 96.6727C212.298 94.6776 213.082 92.6111 213.723 90.5091C216.93 87.9795 219.495 84.6661 221.205 80.9608C221.312 80.6758 221.17 80.2839 220.849 80.1414Z" fill="black"/>
<path d="M217.429 112.955C214.65 113.097 211.835 113.382 209.021 113.525C206.206 113.382 203.391 113.133 200.612 112.955C200.078 119.866 201.788 126.921 205.422 132.835H206.918H211.123H212.619C216.253 126.956 217.963 119.866 217.429 112.955Z" fill="#FFB227"/>
<path opacity="0.1" d="M217.429 112.955C214.65 113.097 211.835 113.382 209.021 113.525C206.206 113.382 203.391 113.133 200.612 112.955C200.434 115.092 200.505 117.194 200.755 119.332L217.536 114.807C217.5 114.202 217.464 113.596 217.429 112.955Z" fill="black"/>
<path d="M218.889 111.031H199.116V114.451H218.889V111.031Z" fill="#FFB227"/>
<path opacity="0.3" d="M218.889 111.031H199.116V114.451H218.889V111.031Z" fill="black"/>
<path d="M195.909 132.906H126.506C122.943 132.906 120.093 130.02 120.093 126.493V32.9344C120.093 29.3717 122.979 26.5214 126.506 26.5214H195.909C199.472 26.5214 202.322 29.4073 202.322 32.9344V126.493C202.322 130.02 199.472 132.906 195.909 132.906Z" fill="#7048A3"/>
<path opacity="0.1" d="M202.323 51.7459L122.516 131.552C123.621 132.407 124.974 132.942 126.471 132.942H137.266L202.323 67.8853V51.7459Z" fill="white"/>
<path opacity="0.1" d="M120.058 126.101L202.322 43.8366V32.9344C202.322 29.3717 199.436 26.5214 195.909 26.5214H187.43L120.093 93.8581V126.101H120.058Z" fill="white"/>
<path d="M195.909 28.1248H178.95V29.9775C178.95 31.1532 177.989 32.1508 176.777 32.1508H145.603C144.427 32.1508 143.43 31.1888 143.43 29.9775V28.1248H126.471C123.799 28.1248 121.661 30.2981 121.661 32.9346V126.493C121.661 129.165 123.834 131.303 126.471 131.303H195.874C198.546 131.303 200.683 129.13 200.683 126.493V32.9346C200.719 30.2625 198.581 28.1248 195.909 28.1248Z" fill="white"/>
<path opacity="0.2" d="M161.992 29.4073C161.992 29.8348 161.635 30.2267 161.172 30.2267C160.745 30.2267 160.353 29.8704 160.353 29.4073C160.353 28.9797 160.709 28.5878 161.172 28.5878C161.635 28.6235 161.992 28.9797 161.992 29.4073Z" fill="black"/>
<path opacity="0.2" d="M153.94 29.4073C153.94 29.8348 153.583 30.2267 153.12 30.2267C152.693 30.2267 152.301 29.8704 152.301 29.4073C152.301 28.9797 152.657 28.5878 153.12 28.5878C153.583 28.6235 153.94 28.9797 153.94 29.4073Z" fill="black"/>
<path opacity="0.2" d="M170.079 29.4073C170.079 29.8348 169.723 30.2267 169.26 30.2267C168.832 30.2267 168.44 29.8704 168.44 29.4073C168.44 28.9797 168.796 28.5878 169.26 28.5878C169.723 28.6235 170.079 28.9797 170.079 29.4073Z" fill="black"/>
<path opacity="0.1" d="M135.52 55.0951H129.927C127.646 55.0951 125.794 53.2425 125.794 50.9623V45.3687C125.794 43.0885 127.646 41.2359 129.927 41.2359H135.52C137.8 41.2359 139.653 43.0885 139.653 45.3687V50.9623C139.653 53.2425 137.8 55.0951 135.52 55.0951ZM129.927 44.1218C129.25 44.1218 128.68 44.6918 128.68 45.3687V50.9623C128.68 51.6392 129.25 52.2093 129.927 52.2093H135.52C136.197 52.2093 136.767 51.6392 136.767 50.9623V45.3687C136.767 44.6918 136.197 44.1218 135.52 44.1218H129.927Z" fill="black"/>
<path opacity="0.1" d="M193.059 44.478H144.107C143.394 44.478 142.824 43.9079 142.824 43.1954C142.824 42.4828 143.394 41.9128 144.107 41.9128H193.059C193.772 41.9128 194.342 42.4828 194.342 43.1954C194.342 43.9079 193.772 44.478 193.059 44.478Z" fill="black"/>
<path opacity="0.1" d="M192.952 49.537H144C143.287 49.537 142.717 48.967 142.717 48.2544C142.717 47.5418 143.287 46.9718 144 46.9718H192.952C193.665 46.9718 194.235 47.5418 194.235 48.2544C194.235 48.967 193.665 49.537 192.952 49.537Z" fill="black"/>
<path opacity="0.1" d="M167.835 54.5963H144.107C143.394 54.5963 142.824 54.0263 142.824 53.3137C142.824 52.6012 143.394 52.0311 144.107 52.0311H167.835C168.547 52.0311 169.117 52.6012 169.117 53.3137C169.117 54.0263 168.547 54.5963 167.835 54.5963Z" fill="black"/>
<path opacity="0.1" d="M135.52 75.6165H129.927C127.646 75.6165 125.794 73.7639 125.794 71.4837V65.8901C125.794 63.6099 127.646 61.7573 129.927 61.7573H135.52C137.8 61.7573 139.653 63.6099 139.653 65.8901V71.4837C139.653 73.7639 137.8 75.6165 135.52 75.6165ZM129.927 64.6431C129.25 64.6431 128.68 65.2132 128.68 65.8901V71.4837C128.68 72.1606 129.25 72.7306 129.927 72.7306H135.52C136.197 72.7306 136.767 72.1606 136.767 71.4837V65.8901C136.767 65.2132 136.197 64.6431 135.52 64.6431H129.927Z" fill="black"/>
<path opacity="0.1" d="M193.059 64.9639H144.107C143.394 64.9639 142.824 64.3938 142.824 63.6813C142.824 62.9687 143.394 62.3987 144.107 62.3987H193.059C193.772 62.3987 194.342 62.9687 194.342 63.6813C194.342 64.3938 193.772 64.9639 193.059 64.9639Z" fill="black"/>
<path opacity="0.1" d="M192.952 70.0231H144C143.287 70.0231 142.717 69.453 142.717 68.7405C142.717 68.0279 143.287 67.4579 144 67.4579H192.952C193.665 67.4579 194.235 68.0279 194.235 68.7405C194.235 69.453 193.665 70.0231 192.952 70.0231Z" fill="black"/>
<path opacity="0.1" d="M167.835 75.0822H144.107C143.394 75.0822 142.824 74.5122 142.824 73.7996C142.824 73.0871 143.394 72.517 144.107 72.517H167.835C168.547 72.517 169.117 73.0871 169.117 73.7996C169.117 74.5122 168.547 75.0822 167.835 75.0822Z" fill="black"/>
<path opacity="0.1" d="M135.52 96.1028H129.927C127.646 96.1028 125.794 94.2501 125.794 91.9699V86.3764C125.794 84.0962 127.646 82.2435 129.927 82.2435H135.52C137.8 82.2435 139.653 84.0962 139.653 86.3764V91.9699C139.653 94.2501 137.8 96.1028 135.52 96.1028ZM129.927 85.1294C129.25 85.1294 128.68 85.6994 128.68 86.3764V91.9699C128.68 92.6469 129.25 93.2169 129.927 93.2169H135.52C136.197 93.2169 136.767 92.6469 136.767 91.9699V86.3764C136.767 85.6994 136.197 85.1294 135.52 85.1294H129.927Z" fill="black"/>
<path opacity="0.1" d="M193.059 85.4856H144.107C143.394 85.4856 142.824 84.9156 142.824 84.203C142.824 83.4905 143.394 82.9204 144.107 82.9204H193.059C193.772 82.9204 194.342 83.4905 194.342 84.203C194.342 84.9156 193.772 85.4856 193.059 85.4856Z" fill="black"/>
<path opacity="0.1" d="M192.952 90.5446H144C143.287 90.5446 142.717 89.9746 142.717 89.262C142.717 88.5495 143.287 87.9794 144 87.9794H192.952C193.665 87.9794 194.235 88.5495 194.235 89.262C194.235 89.9746 193.665 90.5446 192.952 90.5446Z" fill="black"/>
<path opacity="0.1" d="M167.835 95.6038H144.107C143.394 95.6038 142.824 95.0337 142.824 94.3212C142.824 93.6086 143.394 93.0386 144.107 93.0386H167.835C168.547 93.0386 169.117 93.6086 169.117 94.3212C169.117 95.0337 168.547 95.6038 167.835 95.6038Z" fill="black"/>
<path opacity="0.1" d="M135.52 116.624H129.927C127.646 116.624 125.794 114.771 125.794 112.491V106.898C125.794 104.618 127.646 102.765 129.927 102.765H135.52C137.8 102.765 139.653 104.618 139.653 106.898V112.491C139.653 114.736 137.8 116.624 135.52 116.624ZM129.927 105.615C129.25 105.615 128.68 106.185 128.68 106.862V112.456C128.68 113.133 129.25 113.703 129.927 113.703H135.52C136.197 113.703 136.767 113.133 136.767 112.456V106.862C136.767 106.185 136.197 105.615 135.52 105.615H129.927Z" fill="black"/>
<path opacity="0.1" d="M193.059 105.972H144.107C143.394 105.972 142.824 105.401 142.824 104.689C142.824 103.976 143.394 103.406 144.107 103.406H193.059C193.772 103.406 194.342 103.976 194.342 104.689C194.342 105.401 193.772 105.972 193.059 105.972Z" fill="black"/>
<path opacity="0.1" d="M192.952 111.031H144C143.287 111.031 142.717 110.46 142.717 109.748C142.717 109.035 143.287 108.465 144 108.465H192.952C193.665 108.465 194.235 109.035 194.235 109.748C194.235 110.46 193.665 111.031 192.952 111.031Z" fill="black"/>
<path opacity="0.1" d="M167.835 116.09H144.107C143.394 116.09 142.824 115.52 142.824 114.807C142.824 114.095 143.394 113.524 144.107 113.524H167.835C168.547 113.524 169.117 114.095 169.117 114.807C169.117 115.52 168.547 116.09 167.835 116.09Z" fill="black"/>
<path d="M127.112 31.7942C127.545 31.7942 127.896 31.4433 127.896 31.0104C127.896 30.5775 127.545 30.2266 127.112 30.2266C126.679 30.2266 126.328 30.5775 126.328 31.0104C126.328 31.4433 126.679 31.7942 127.112 31.7942Z" fill="#FF58D5"/>
<path d="M129.927 31.7942C130.36 31.7942 130.71 31.4433 130.71 31.0104C130.71 30.5775 130.36 30.2266 129.927 30.2266C129.494 30.2266 129.143 30.5775 129.143 31.0104C129.143 31.4433 129.494 31.7942 129.927 31.7942Z" fill="#FF58D5"/>
<path d="M132.741 31.7942C133.174 31.7942 133.525 31.4433 133.525 31.0104C133.525 30.5775 133.174 30.2266 132.741 30.2266C132.308 30.2266 131.957 30.5775 131.957 31.0104C131.957 31.4433 132.308 31.7942 132.741 31.7942Z" fill="#FF58D5"/>
<path d="M135.52 31.7942C135.953 31.7942 136.304 31.4433 136.304 31.0104C136.304 30.5775 135.953 30.2266 135.52 30.2266C135.087 30.2266 134.736 30.5775 134.736 31.0104C134.736 31.4433 135.087 31.7942 135.52 31.7942Z" fill="#FF58D5"/>
<path d="M138.335 31.7942C138.768 31.7942 139.119 31.4433 139.119 31.0104C139.119 30.5775 138.768 30.2266 138.335 30.2266C137.902 30.2266 137.551 30.5775 137.551 31.0104C137.551 31.4433 137.902 31.7942 138.335 31.7942Z" fill="#FF58D5"/>
<path d="M186.183 29.6923H181.623V32.2219H186.183V29.6923Z" fill="#FF58D5"/>
<path d="M186.184 31.6194H186.825V30.2656H186.184V31.6194Z" fill="#FF58D5"/>
<path d="M189.222 30.4811V30.9488H190.072V34.2444H190.604V30.4811H189.222Z" fill="#FF58D5"/>
<path d="M192.965 34.2874C193.841 34.2874 194.497 33.5885 194.497 32.3628C194.497 31.137 193.841 30.4381 192.965 30.4381C192.083 30.4381 191.427 31.137 191.427 32.3628C191.427 33.5885 192.083 34.2874 192.965 34.2874ZM192.965 33.8089C192.373 33.8089 191.965 33.3251 191.965 32.3628C191.965 31.4004 192.373 30.9166 192.965 30.9166C193.551 30.9166 193.959 31.4004 193.959 32.3628C193.959 33.3251 193.551 33.8089 192.965 33.8089Z" fill="#FF58D5"/>
<path d="M190.975 40.8302C191.851 40.8302 192.507 40.1313 192.507 38.9055C192.507 37.6798 191.851 36.9809 190.975 36.9809C190.093 36.9809 189.437 37.6798 189.437 38.9055C189.437 40.1313 190.093 40.8302 190.975 40.8302ZM190.975 40.3517C190.384 40.3517 189.975 39.8678 189.975 38.9055C189.975 37.9432 190.384 37.4593 190.975 37.4593C191.561 37.4593 191.97 37.9432 191.97 38.9055C191.97 39.8678 191.561 40.3517 190.975 40.3517Z" fill="#FF58D5"/>
<path d="M190.255 45.5881C190.776 45.5881 191.126 45.1795 191.126 44.5612C191.126 43.943 190.776 43.5344 190.255 43.5344C189.733 43.5344 189.378 43.9483 189.378 44.5612C189.378 45.1741 189.733 45.5881 190.255 45.5881ZM189.954 47.3299H190.368L192.937 43.5666H192.523L189.954 47.3299ZM190.255 45.2816C189.932 45.2816 189.728 45.0074 189.728 44.5612C189.728 44.115 189.932 43.8408 190.255 43.8408C190.583 43.8408 190.781 44.1096 190.781 44.5612C190.781 45.0128 190.583 45.2816 190.255 45.2816ZM192.636 47.3622C193.158 47.3622 193.513 46.9482 193.513 46.3353C193.513 45.7225 193.158 45.3085 192.636 45.3085C192.115 45.3085 191.765 45.7225 191.765 46.3353C191.765 46.9482 192.115 47.3622 192.636 47.3622ZM192.636 47.0557C192.308 47.0557 192.109 46.7869 192.109 46.3353C192.109 45.8837 192.308 45.6149 192.636 45.6149C192.959 45.6149 193.163 45.8891 193.163 46.3353C193.163 46.7816 192.959 47.0557 192.636 47.0557Z" fill="#FF58D5"/>
<path d="M142.645 58.444C139.439 61.3655 136.126 64.6432 133.204 67.8141C132.242 66.6384 131.458 65.3201 130.71 63.9663C129.428 64.2869 128.145 64.6076 126.862 64.9282C128.786 67.3153 130.924 69.5955 133.347 71.4838C136.482 67.3153 139.546 62.6481 142.645 58.444Z" fill="#002B66"/>
<path d="M142.645 78.9656C139.439 81.8871 136.126 85.1648 133.204 88.3357C132.242 87.16 131.458 85.8418 130.71 84.4879C129.428 84.8085 128.145 85.1292 126.862 85.4498C128.786 87.8369 130.924 90.1171 133.347 92.0054C136.482 87.8013 139.546 83.134 142.645 78.9656Z" fill="#002B66"/>
<path d="M142.645 99.4517C139.439 102.373 136.126 105.651 133.204 108.822C132.242 107.646 131.458 106.328 130.71 104.974C129.428 105.295 128.145 105.615 126.862 105.936C128.786 108.323 130.924 110.603 133.347 112.491C136.482 108.287 139.546 103.656 142.645 99.4517Z" fill="#002B66"/>
<path d="M139.261 31.0107C137.088 34.7516 134.879 38.8844 133.062 42.7679C131.779 41.9128 130.639 40.9152 129.535 39.8464C128.394 40.5233 127.29 41.2359 126.15 41.9128C128.715 43.6229 131.423 45.1549 134.309 46.1881C136.054 41.3071 137.586 35.9273 139.261 31.0107Z" fill="#002B66"/>
<path d="M99.8921 128.061L101.353 124.57L104.132 126.208L101.816 129.201L99.8921 128.061Z" fill="#FF58D5"/>
<path d="M116.673 130.412L115.96 125.995H120.485L119.808 130.412H116.673Z" fill="#FF58D5"/>
<path d="M100.498 87.3026C100.926 88.514 101.353 89.8679 100.89 91.0436C101.246 91.6849 100.783 92.6824 100.213 93.11C99.6429 93.5375 98.7522 93.4663 98.2178 92.9675C97.8259 92.5756 97.6834 92.0055 97.6121 91.4355C97.4696 89.9391 97.8972 88.3715 98.7879 87.1958C98.7879 86.8039 98.966 86.3763 99.3579 86.3763C99.7498 86.3407 100.391 86.9464 100.498 87.3026Z" fill="#FF58D5"/>
<path d="M112.754 56.6983C112.184 55.8789 112.255 54.7744 112.683 53.8837C113.11 52.993 113.858 52.3161 114.606 51.7104C115.355 51.1047 116.174 50.5347 116.851 49.8221C118.062 48.5039 118.632 46.6512 118.454 44.8699C118.347 43.9792 118.027 43.0885 117.35 42.554C116.245 41.7346 114.571 42.1265 113.573 43.0528C112.54 43.9792 112.006 45.2974 111.436 46.5444C110.865 47.7913 110.189 49.1096 109.013 49.8578C108.3 50.3209 107.445 50.5347 106.733 50.9978C105.201 51.9598 104.524 54.0618 105.165 55.7364C104.524 56.3777 104.381 57.4465 104.737 58.2659C105.094 59.0854 105.806 59.7267 106.626 60.1186C108.158 60.9024 110.046 60.938 111.614 60.2967C111.293 59.5129 111.471 58.3016 112.112 57.7671C112.433 57.4821 112.789 57.1258 112.754 56.6983Z" fill="#002B66"/>
<path d="M128.537 46.2593C128.074 45.5467 128.288 44.4779 128.965 43.9791C128.786 43.1597 129.392 42.0552 130.247 41.9483C130.782 41.8771 131.387 42.1621 131.565 42.6609C131.672 42.9459 131.601 43.3022 131.494 43.5872C131.138 44.8698 130.461 46.0455 129.535 46.9719C129.214 46.7937 128.715 46.58 128.537 46.2593Z" fill="#FF58D5"/>
<path d="M100.89 88.514C101.674 82.6354 104.488 77.0062 108.764 72.8734C109.868 71.8045 111.079 70.807 112.077 69.6669C113.075 68.5268 113.894 67.1017 114.036 65.5697C114.108 64.7858 114.001 64.002 113.573 63.3607C113.146 62.7194 112.362 62.2563 111.614 62.3631C109.227 62.6838 107.267 64.4652 105.7 66.2822C100.854 72.0183 98.2177 79.5358 98.3602 87.0532C99.2153 87.8014 99.821 88.229 100.89 88.514Z" fill="#FFB227"/>
<path opacity="0.2" d="M100.89 88.514C101.674 82.6354 104.488 77.0062 108.764 72.8734C109.868 71.8045 111.079 70.807 112.077 69.6669C113.075 68.5268 113.894 67.1017 114.036 65.5697C114.108 64.7858 114.001 64.002 113.573 63.3607C113.146 62.7194 112.362 62.2563 111.614 62.3631C109.227 62.6838 107.267 64.4652 105.7 66.2822C100.854 72.0183 98.2177 79.5358 98.3602 87.0532C99.2153 87.8014 99.821 88.229 100.89 88.514Z" fill="black"/>
<path d="M115.96 98.3828C115.176 108.466 111.044 118.263 104.31 125.816C103.277 125.496 102.315 124.783 101.567 123.999C102.707 117.764 107.231 112.349 107.73 106.043C107.98 102.694 107.125 99.3448 106.697 95.9958C106.27 92.6468 105.308 87.6232 107.267 84.8799C110.224 86.4119 113.787 90.0816 115.497 92.9318C116.067 93.8581 116.566 94.8913 116.744 95.9601C116.922 97.029 116.032 97.2784 115.96 98.3828Z" fill="#005898"/>
<path opacity="0.3" d="M115.96 98.3828C115.176 108.466 111.044 118.263 104.31 125.816C103.277 125.496 102.315 124.783 101.567 123.999C102.707 117.764 107.231 112.349 107.73 106.043C107.98 102.694 107.125 99.3448 106.697 95.9958C106.27 92.6468 105.308 87.6232 107.267 84.8799C110.224 86.4119 113.787 90.0816 115.497 92.9318C116.067 93.8581 116.566 94.8913 116.744 95.9601C116.922 97.029 116.032 97.2784 115.96 98.3828Z" fill="black"/>
<path opacity="0.2" d="M116.709 95.9245C116.53 94.8557 116.032 93.8225 115.462 92.8962C113.787 90.1172 110.331 86.5544 107.445 84.9512C107.303 85.0224 107.16 85.0937 107.053 85.1293C105.486 87.7301 106.163 92.0411 106.59 95.212C106.697 95.3901 106.768 95.5326 106.875 95.7108C108.479 98.4898 110.581 100.984 112.006 103.834C112.896 105.615 113.573 107.646 113.645 109.641C114.892 105.972 115.675 102.159 115.96 98.3116C116.032 97.2784 116.922 97.029 116.709 95.9245Z" fill="black"/>
<path d="M117.635 84.8087C121.019 98.5966 122.053 112.919 120.699 127.063H116.067C114.784 121.897 113.609 116.197 113.68 110.853C113.716 107.539 114.25 104.19 113.431 101.019C112.682 98.1691 110.901 95.7464 109.44 93.2168C107.98 90.6873 106.733 87.7658 107.267 84.8799C110.687 84.0248 114.214 83.9892 117.635 84.8087Z" fill="#005898"/>
<path opacity="0.2" d="M113.181 84.2384C114.713 84.951 116.423 85.6279 118.027 86.483C117.884 85.9129 117.777 85.3785 117.635 84.8085C114.214 83.989 110.687 84.0247 107.267 84.8441C106.733 87.73 107.98 90.6514 109.44 93.181C110.901 95.7106 112.682 98.1689 113.431 100.984C114.25 104.154 113.716 107.539 113.68 110.817C113.644 116.125 114.784 121.861 116.067 127.027H118.205C119.915 112.634 118.169 97.8483 113.181 84.2384Z" fill="black"/>
<path opacity="0.2" d="M118.205 87.3026C118.134 87.0176 118.098 86.7682 118.027 86.4831C117.956 86.2337 117.92 86.02 117.849 85.7706C116.78 85.4499 115.925 84.9511 114.607 84.6305C113.823 84.4524 113.039 84.3098 112.255 84.2386C111.222 84.2386 110.224 84.3455 109.191 84.488C108.265 84.773 107.41 85.2718 106.662 85.9131C106.626 86.02 106.59 86.1269 106.519 86.2337C106.519 86.2337 106.519 86.2338 106.519 86.2694C106.448 86.4475 106.412 86.6257 106.341 86.8038V86.8394C106.305 87.0176 106.234 87.2313 106.198 87.4095V87.4451C106.092 88.0508 106.02 88.6921 106.02 89.3334V89.369C106.02 89.5828 106.02 89.7965 106.02 90.0103C106.02 90.0459 106.02 90.0459 106.02 90.0816C106.02 90.2953 106.02 90.5091 106.056 90.7229V90.7585C106.092 91.186 106.127 91.6492 106.163 92.0767V92.1123C106.198 92.3261 106.198 92.5399 106.234 92.718C106.234 92.7536 106.234 92.7536 106.234 92.7893C106.27 93.003 106.27 93.1812 106.305 93.3949C106.305 93.4306 106.305 93.4662 106.305 93.5018C106.341 93.68 106.341 93.8937 106.377 94.0719C106.377 94.1075 106.377 94.1431 106.377 94.1788C106.377 94.2856 106.412 94.3925 106.412 94.535C111.115 93.68 115.39 91.0435 118.205 87.3026Z" fill="black"/>
<path d="M105.307 90.1528C109.262 91.2929 114.998 88.0508 118.846 86.6257C118.525 82.5285 117.635 78.2888 117.314 74.1916C116.993 69.7737 116.53 65.0708 113.751 61.6149C112.611 60.2254 110.046 61.0093 108.692 62.185C107.338 63.3607 106.59 65.0708 106.02 66.781C103.847 73.5503 103.419 83.3836 105.307 90.1528Z" fill="#FFB227"/>
<path opacity="0.2" d="M117.314 74.2271C117.029 70.3437 116.637 66.2109 114.642 62.9331C113.823 63.1469 113.003 63.5032 112.255 63.9307C110.723 64.8214 109.44 66.2109 107.908 67.0303C110.581 70.023 113.787 72.5526 117.35 74.4053C117.314 74.3696 117.314 74.2984 117.314 74.2271Z" fill="black"/>
<path d="M110.474 56.5202C110.153 58.3372 109.975 60.1542 109.939 62.0069C110.83 62.2563 111.828 62.5769 112.718 62.3988C113.003 60.5461 113.075 58.5866 112.968 56.6983C112.113 56.4133 111.4 56.4133 110.474 56.5202Z" fill="#FF58D5"/>
<path opacity="0.2" d="M110.082 59.5841C110.937 60.1898 111.899 60.6886 112.896 61.0092C113.039 59.691 113.039 58.3372 113.003 57.0189C112.896 56.8764 112.79 56.7339 112.647 56.5914C112.647 56.5914 112.611 56.5914 112.611 56.5558C111.899 56.3776 111.258 56.3776 110.474 56.4489C110.296 57.5177 110.189 58.5509 110.082 59.5841Z" fill="black"/>
<path d="M110.581 52.9573C112.611 54.0618 114.25 55.95 115.034 58.1233C114.571 58.9784 113.751 59.6197 112.825 59.9047C111.471 60.3323 109.904 60.1185 108.764 59.2278C107.623 58.3727 107.053 56.8051 107.41 55.4512C107.73 54.0974 109.298 52.2804 110.581 52.9573Z" fill="#FF58D5"/>
<path d="M130.14 46.4017C129.036 50.6414 127.682 54.8099 125.615 58.6577C123.513 62.5055 120.628 65.9614 116.922 68.2416C115.747 68.9542 114.5 69.5598 113.146 69.738C111.792 69.9161 110.331 69.6667 109.298 68.8116C108.265 67.9566 106.982 65.997 107.766 64.8926C108.764 63.5031 110.509 62.933 112.077 62.3274C119.452 59.4059 125.473 53.2066 128.181 45.7248L130.14 46.4017Z" fill="#FFB227"/>
<path d="M112.683 53.6343C112.718 53.8124 112.647 54.0262 112.505 54.1687C112.362 54.3112 112.22 54.4181 112.041 54.525C111.151 55.0594 110.082 55.38 109.013 55.4157C109.369 55.9145 109.441 56.6626 109.298 57.2327C109.619 57.5177 109.904 57.8384 110.224 58.1234C109.939 57.9452 109.476 57.8384 109.156 57.6959C108.977 57.6246 108.728 57.5533 108.55 57.6959C108.443 57.8027 108.407 57.9809 108.443 58.1234C108.479 58.2659 108.586 58.3728 108.728 58.4797C109.049 58.8003 109.476 59.0141 109.939 59.121C110.082 59.5485 110.046 60.0117 109.975 60.4748C108.764 60.1898 107.232 59.5841 106.59 58.5153C106.163 57.7671 106.163 56.8764 106.199 56.0213C106.305 54.81 106.555 53.5274 107.303 52.5654C108.051 51.6035 109.369 50.9978 110.545 51.3897C111.471 51.7816 112.505 52.6723 112.683 53.6343Z" fill="#002B66"/>
<path d="M120.485 128.097H115.96C115.533 128.097 115.177 127.74 115.177 127.313V126.814C115.177 126.386 115.533 126.03 115.96 126.03H120.485C120.913 126.03 121.269 126.386 121.269 126.814V127.348C121.269 127.74 120.913 128.097 120.485 128.097Z" fill="#005898"/>
<path d="M120.485 128.097H115.96C115.533 128.097 115.177 127.74 115.177 127.313V126.814C115.177 126.386 115.533 126.03 115.96 126.03H120.485C120.913 126.03 121.269 126.386 121.269 126.814V127.348C121.269 127.74 120.913 128.097 120.485 128.097Z" fill="#005898"/>
<path d="M104.417 127.028L100.534 124.712C100.142 124.498 100.035 123.999 100.249 123.643L100.498 123.18C100.712 122.788 101.211 122.681 101.567 122.895L105.45 125.211C105.842 125.424 105.949 125.923 105.735 126.279L105.486 126.743C105.272 127.099 104.809 127.241 104.417 127.028Z" fill="#005898"/>
<path d="M104.417 127.028L100.534 124.712C100.142 124.498 100.035 123.999 100.249 123.643L100.498 123.18C100.712 122.788 101.211 122.681 101.567 122.895L105.45 125.211C105.842 125.424 105.949 125.923 105.735 126.279L105.486 126.743C105.272 127.099 104.809 127.241 104.417 127.028Z" fill="#005898"/>
<path d="M116.673 130.412L115.177 132.906H124.511L119.808 130.412H116.673Z" fill="#005898"/>
<path d="M102.956 130.947L101.816 129.201L99.8922 128.061L97.5408 129.165L102.03 131.766L102.457 132.087L105.201 132.372L102.956 130.947Z" fill="#005898"/>
<path opacity="0.2" d="M176.136 129.201H146.244C145.71 129.201 145.247 128.773 145.247 128.203C145.247 127.669 145.674 127.206 146.244 127.206H176.136C176.67 127.206 177.134 127.633 177.134 128.203C177.134 128.738 176.67 129.201 176.136 129.201Z" fill="black"/>
<path opacity="0.2" d="M146.28 12.0567C146.28 12.6624 145.781 13.1968 145.14 13.1968C144.499 13.1968 144 12.698 144 12.0567C144 11.451 144.499 10.9166 145.14 10.9166C145.781 10.9166 146.28 11.4154 146.28 12.0567Z" fill="black"/>
<path opacity="0.2" d="M111.828 7.46063C111.828 7.85253 111.507 8.17318 111.115 8.17318C110.723 8.17318 110.403 7.85253 110.403 7.46063C110.403 7.06872 110.723 6.74807 111.115 6.74807C111.507 6.71244 111.828 7.06872 111.828 7.46063Z" fill="black"/>
<path opacity="0.2" d="M111.044 33.0056C111.044 33.4332 110.688 33.7894 110.26 33.7894C109.833 33.7894 109.476 33.4332 109.476 33.0056C109.476 32.5781 109.833 32.2218 110.26 32.2218C110.688 32.1862 111.044 32.5425 111.044 33.0056Z" fill="black"/>
<path opacity="0.2" d="M92.553 49.7509C92.553 50.606 91.8404 51.3185 90.9854 51.3185C90.1303 51.3185 89.4177 50.606 89.4177 49.7509C89.4177 48.8958 90.1303 48.1833 90.9854 48.1833C91.8404 48.1833 92.553 48.8602 92.553 49.7509Z" fill="black"/>
<path opacity="0.2" d="M186.504 11.9855C186.504 12.4486 186.147 12.8049 185.684 12.8049C185.221 12.8049 184.865 12.4486 184.865 11.9855C184.865 11.5223 185.221 11.166 185.684 11.166C186.147 11.166 186.504 11.5579 186.504 11.9855Z" fill="black"/>
<path opacity="0.2" d="M212.583 12.5554C212.797 13.1967 213.296 13.6955 213.902 13.8736C213.26 14.0874 212.762 14.5862 212.583 15.1919C212.37 14.5506 211.871 14.0518 211.265 13.8736C211.906 13.6955 212.405 13.1967 212.583 12.5554Z" fill="black"/>
<path opacity="0.2" d="M197.049 19.6812C197.263 20.3225 197.762 20.8212 198.368 20.9994C197.726 21.2131 197.228 21.7119 197.049 22.3176C196.836 21.6763 196.337 21.1775 195.731 20.9994C196.337 20.8212 196.836 20.3225 197.049 19.6812Z" fill="black"/>
<path opacity="0.2" d="M161.992 0.905151C162.205 1.54645 162.704 2.04524 163.31 2.22338C162.668 2.43715 162.17 2.93594 161.992 3.54161C161.778 2.90031 161.279 2.40152 160.673 2.22338C161.315 2.00962 161.813 1.51082 161.992 0.905151Z" fill="black"/>
<path opacity="0.2" d="M92.5531 14.4081C92.7669 15.0494 93.2657 15.5482 93.8713 15.7263C93.23 15.9401 92.7312 16.4389 92.5531 17.0445C92.3393 16.4032 91.8405 15.9044 91.2349 15.7263C91.8762 15.5482 92.375 15.0494 92.5531 14.4081Z" fill="black"/>
<path opacity="0.2" d="M129.82 10.8097C130.033 11.451 130.532 11.9498 131.138 12.1279C130.497 12.3417 129.998 12.8405 129.82 13.4462C129.606 12.8049 129.107 12.3061 128.501 12.1279C129.143 11.9498 129.642 11.451 129.82 10.8097Z" fill="black"/>
<path opacity="0.2" d="M90.7716 77.1487C90.9854 77.79 91.4842 78.2888 92.0898 78.4669C91.4485 78.6807 90.9497 79.1795 90.7716 79.7851C90.5578 79.1438 90.059 78.645 89.4534 78.4669C90.0947 78.2888 90.5935 77.79 90.7716 77.1487Z" fill="black"/>
<path d="M33.4116 62.7698C33.4116 63.394 33.2963 63.9707 33.0656 64.5C32.8485 65.0292 32.516 65.4906 32.0682 65.8841C31.6204 66.2641 31.0504 66.5694 30.3584 66.8001C29.6798 67.0172 28.886 67.1258 27.9768 67.1258C27.4883 67.1258 26.9794 67.0851 26.4501 67.0037C25.9209 66.9222 25.412 66.8069 24.9235 66.6576C24.4485 66.5083 24.0211 66.3252 23.6411 66.108C23.2747 65.8909 22.9965 65.6399 22.8066 65.3549C22.6573 65.1378 22.5826 64.9071 22.5826 64.6628C22.5826 64.2693 22.7183 63.9504 22.9897 63.7061C23.2747 63.4483 23.5936 63.3194 23.9464 63.3194C24.0821 63.3194 24.2178 63.3397 24.3536 63.3804C24.4893 63.4076 24.6114 63.4618 24.7199 63.5433C25.1813 63.8554 25.697 64.1132 26.2669 64.3168C26.8369 64.5067 27.4543 64.6017 28.1193 64.6017C28.5128 64.6017 28.8589 64.561 29.1574 64.4796C29.4559 64.3982 29.7002 64.2896 29.8902 64.1539C30.0937 64.0047 30.243 63.8418 30.338 63.6654C30.433 63.4754 30.4805 63.2854 30.4805 63.0954C30.4805 62.7969 30.3651 62.5526 30.1344 62.3627C29.9173 62.1727 29.6256 62.0166 29.2592 61.8945C28.8928 61.7588 28.4721 61.6434 27.9971 61.5484C27.5358 61.4399 27.0608 61.3178 26.5723 61.1821C26.0837 61.0464 25.602 60.8835 25.1271 60.6935C24.6657 60.5035 24.2518 60.2593 23.8854 59.9607C23.519 59.6622 23.2204 59.2958 22.9897 58.8616C22.7726 58.4137 22.6641 57.8709 22.6641 57.2331C22.6641 56.6632 22.7794 56.1339 23.0101 55.6454C23.2544 55.1433 23.5936 54.7023 24.0279 54.3223C24.4757 53.9424 25.0185 53.6438 25.6563 53.4267C26.2941 53.2096 27.0133 53.101 27.8139 53.101C28.1939 53.101 28.6146 53.1349 29.076 53.2028C29.5509 53.2571 30.0055 53.3521 30.4398 53.4878C30.874 53.6099 31.2743 53.766 31.6407 53.9559C32.0071 54.1459 32.2853 54.363 32.4753 54.6073C32.6381 54.8109 32.7196 55.0415 32.7196 55.2994C32.7196 55.6929 32.5635 56.0118 32.2514 56.2561C31.9529 56.4868 31.6272 56.6021 31.2743 56.6021C31.0165 56.6021 30.7722 56.5343 30.5416 56.3986C30.0666 56.1272 29.5713 55.9304 29.0556 55.8083C28.5535 55.6861 28.0514 55.6251 27.5493 55.6251C26.9251 55.6251 26.4434 55.754 26.1041 56.0118C25.7784 56.2561 25.6156 56.5818 25.6156 56.9889C25.6156 57.2603 25.7241 57.4842 25.9413 57.6606C26.172 57.8234 26.4705 57.9659 26.8369 58.0881C27.2033 58.2102 27.6172 58.3255 28.0786 58.4341C28.5535 58.5291 29.0285 58.6444 29.5034 58.7801C29.992 58.9158 30.4669 59.0855 30.9283 59.289C31.4033 59.479 31.8239 59.73 32.1903 60.0422C32.5567 60.3407 32.8485 60.7139 33.0656 61.1617C33.2963 61.5959 33.4116 62.132 33.4116 62.7698Z" fill="white"/>
<path d="M45.2708 61.9556C45.2708 62.7698 45.1623 63.5026 44.9451 64.1539C44.728 64.7917 44.4227 65.3345 44.0291 65.7823C43.6492 66.2166 43.1878 66.5491 42.645 66.7798C42.1157 67.0104 41.539 67.1258 40.9148 67.1258C40.3313 67.1258 39.7749 67.0037 39.2457 66.7594C38.73 66.5151 38.2754 66.1352 37.8818 65.6195V69.487C37.8818 69.8398 37.7529 70.1384 37.4951 70.3826C37.2508 70.6269 36.9455 70.749 36.5791 70.749C36.2263 70.749 35.921 70.6269 35.6631 70.3826C35.4189 70.1384 35.2967 69.8398 35.2967 69.487V58.1898C35.2967 57.837 35.4189 57.5385 35.6631 57.2942C35.921 57.0499 36.2399 56.9278 36.6198 56.9278C36.9726 56.9278 37.2712 57.0499 37.5155 57.2942C37.7597 57.5385 37.8818 57.837 37.8818 58.1898V58.2916C38.2618 57.8166 38.7096 57.4503 39.2253 57.1924C39.741 56.9346 40.3041 56.8057 40.9148 56.8057C41.539 56.8057 42.1157 56.921 42.645 57.1517C43.1878 57.3824 43.6492 57.7149 44.0291 58.1491C44.4227 58.5834 44.728 59.1262 44.9451 59.7775C45.1623 60.4153 45.2708 61.1413 45.2708 61.9556ZM42.5839 61.9556C42.5839 61.5349 42.5229 61.1481 42.4007 60.7953C42.2786 60.4425 42.109 60.1439 41.8918 59.8997C41.6747 59.6418 41.4101 59.4451 41.098 59.3094C40.7994 59.1737 40.467 59.1058 40.1006 59.1058C39.6799 59.1058 39.2592 59.2144 38.8385 59.4315C38.4179 59.6486 38.099 59.9132 37.8818 60.2254V63.7061C38.099 64.0182 38.4179 64.2828 38.8385 64.5C39.2592 64.7171 39.6799 64.8256 40.1006 64.8256C40.467 64.8256 40.7994 64.7578 41.098 64.6221C41.4101 64.4864 41.6747 64.2896 41.8918 64.0318C42.109 63.774 42.2786 63.4754 42.4007 63.1362C42.5229 62.7833 42.5839 62.3898 42.5839 61.9556Z" fill="white"/>
<path d="M56.9345 61.9556C56.9345 62.6612 56.8124 63.3261 56.5681 63.9504C56.3374 64.5746 55.9982 65.1242 55.5504 65.5991C55.1026 66.0605 54.553 66.4337 53.9016 66.7187C53.2638 66.9901 52.5378 67.1258 51.7236 67.1258C50.9094 67.1258 50.1834 66.9901 49.5456 66.7187C48.9078 66.4337 48.365 66.0605 47.9172 65.5991C47.4693 65.1242 47.1233 64.5746 46.879 63.9504C46.6483 63.3261 46.533 62.6612 46.533 61.9556C46.533 61.2635 46.6483 60.6053 46.879 59.9811C47.1233 59.3569 47.4693 58.8141 47.9172 58.3527C48.365 57.8777 48.9078 57.5045 49.5456 57.2331C50.1834 56.9482 50.9094 56.8057 51.7236 56.8057C52.5378 56.8057 53.2638 56.9482 53.9016 57.2331C54.553 57.5045 55.1026 57.8777 55.5504 58.3527C55.9982 58.8141 56.3374 59.3569 56.5681 59.9811C56.8124 60.6053 56.9345 61.2635 56.9345 61.9556ZM54.2476 61.9556C54.2476 61.5756 54.1866 61.216 54.0644 60.8767C53.9559 60.5239 53.793 60.2186 53.5759 59.9607C53.3724 59.7029 53.1145 59.4994 52.8024 59.3501C52.4903 59.1872 52.1307 59.1058 51.7236 59.1058C51.3165 59.1058 50.9569 59.1872 50.6448 59.3501C50.3462 59.4994 50.0884 59.7029 49.8713 59.9607C49.6541 60.2186 49.4913 60.5239 49.3827 60.8767C49.2742 61.216 49.2199 61.5756 49.2199 61.9556C49.2199 62.3491 49.2742 62.7223 49.3827 63.0751C49.4913 63.4143 49.6541 63.7129 49.8713 63.9707C50.0884 64.2286 50.3462 64.4389 50.6448 64.6017C50.9569 64.751 51.3165 64.8256 51.7236 64.8256C52.1307 64.8256 52.4903 64.751 52.8024 64.6017C53.1145 64.4389 53.3724 64.2286 53.5759 63.9707C53.793 63.7129 53.9559 63.4143 54.0644 63.0751C54.1866 62.7223 54.2476 62.3491 54.2476 61.9556Z" fill="white"/>
<path d="M64.6943 58.027C64.6943 58.4205 64.5722 58.7259 64.3279 58.943C64.0973 59.1601 63.8055 59.2958 63.4527 59.3501C63.0591 59.4044 62.6792 59.5129 62.3128 59.6758C61.96 59.8386 61.6682 60.0761 61.4375 60.3882V65.7213C61.4375 66.0741 61.3154 66.3794 61.0711 66.6373C60.8268 66.8815 60.5283 67.0037 60.1755 67.0037H60.1348C59.7819 67.0037 59.4766 66.8815 59.2188 66.6373C58.9745 66.3794 58.8524 66.0741 58.8524 65.7213V58.1898C58.8524 57.837 58.9745 57.5385 59.2188 57.2942C59.4766 57.0499 59.7955 56.9278 60.1755 56.9278C60.5283 56.9278 60.8268 57.0499 61.0711 57.2942C61.3154 57.5385 61.4375 57.837 61.4375 58.1898V58.3934C61.5596 58.2305 61.6886 58.0677 61.8243 57.9049C61.9735 57.7284 62.1364 57.5724 62.3128 57.4367C62.4892 57.301 62.6792 57.1924 62.8827 57.111C63.0863 57.016 63.3102 56.9685 63.5544 56.9685C63.9344 56.9685 64.2194 57.0703 64.4094 57.2738C64.5994 57.4774 64.6943 57.7284 64.6943 58.027Z" fill="white"/>
<path d="M71.5612 65.9452C71.5612 66.108 71.5273 66.2641 71.4594 66.4134C71.4052 66.5491 71.3034 66.6712 71.1541 66.7798C71.0048 66.8883 70.7945 66.9697 70.5231 67.024C70.2517 67.0919 69.9057 67.1258 69.485 67.1258C68.5758 67.1258 67.8837 66.9019 67.4088 66.4541C66.9338 65.9927 66.6963 65.321 66.6963 64.4389V59.3094H66.0653C65.7532 59.3094 65.4886 59.2008 65.2715 58.9837C65.0543 58.753 64.9458 58.4748 64.9458 58.1491C64.9458 57.8506 65.0543 57.5927 65.2715 57.3756C65.4886 57.1585 65.7532 57.0499 66.0653 57.0499H66.6963V55.5233C66.6963 55.1705 66.8184 54.8719 67.0627 54.6277C67.3205 54.3698 67.6394 54.2409 68.0194 54.2409C68.3722 54.2409 68.6708 54.3698 68.915 54.6277C69.1729 54.8719 69.3018 55.1705 69.3018 55.5233V57.0499H70.3196C70.6181 57.0499 70.8759 57.1653 71.0931 57.396C71.3102 57.6131 71.4187 57.8777 71.4187 58.1898C71.4187 58.5019 71.3102 58.7666 71.0931 58.9837C70.8759 59.2008 70.6181 59.3094 70.3196 59.3094H69.3018V63.7468C69.3018 64.1404 69.3968 64.4185 69.5868 64.5814C69.7903 64.7442 69.9939 64.8256 70.1974 64.8256C70.2246 64.8256 70.2585 64.8256 70.2992 64.8256C70.3535 64.8256 70.3942 64.8256 70.4213 64.8256C70.7877 64.8256 71.0659 64.9342 71.2559 65.1513C71.4594 65.3685 71.5612 65.6331 71.5612 65.9452Z" fill="white"/>
<path d="M28.4653 91.3893C28.4653 91.5521 28.4314 91.7082 28.3635 91.8574C28.3093 91.9931 28.2075 92.1153 28.0582 92.2238C27.9089 92.3324 27.6986 92.4138 27.4272 92.4681C27.1558 92.5359 26.8098 92.5699 26.3891 92.5699C25.4799 92.5699 24.7878 92.346 24.3128 91.8981C23.8379 91.4368 23.6004 90.765 23.6004 89.883V84.7534H22.9694C22.6573 84.7534 22.3927 84.6449 22.1755 84.4278C21.9584 84.1971 21.8499 83.9189 21.8499 83.5932C21.8499 83.2947 21.9584 83.0368 22.1755 82.8197C22.3927 82.6026 22.6573 82.494 22.9694 82.494H23.6004V80.9674C23.6004 80.6145 23.7225 80.316 23.9668 80.0717C24.2246 79.8139 24.5435 79.685 24.9235 79.685C25.2763 79.685 25.5749 79.8139 25.8191 80.0717C26.077 80.316 26.2059 80.6145 26.2059 80.9674V82.494H27.2236C27.5222 82.494 27.78 82.6094 27.9971 82.8401C28.2143 83.0572 28.3228 83.3218 28.3228 83.6339C28.3228 83.946 28.2143 84.2106 27.9971 84.4278C27.78 84.6449 27.5222 84.7534 27.2236 84.7534H26.2059V89.1909C26.2059 89.5844 26.3009 89.8626 26.4909 90.0255C26.6944 90.1883 26.898 90.2697 27.1015 90.2697C27.1287 90.2697 27.1626 90.2697 27.2033 90.2697C27.2576 90.2697 27.2983 90.2697 27.3254 90.2697C27.6918 90.2697 27.97 90.3783 28.16 90.5954C28.3635 90.8125 28.4653 91.0771 28.4653 91.3893Z" fill="white"/>
<path d="M39.3124 87.0536C39.3124 87.3657 39.1971 87.6439 38.9664 87.8882C38.7357 88.1189 38.4507 88.2342 38.1115 88.2342H32.0456C32.0863 88.5463 32.1745 88.8449 32.3102 89.1298C32.4595 89.4012 32.6495 89.6387 32.8802 89.8423C33.1244 90.0458 33.4094 90.2087 33.7351 90.3308C34.0744 90.4529 34.4543 90.514 34.875 90.514C35.1464 90.514 35.4517 90.4733 35.791 90.3919C36.1438 90.3104 36.4763 90.1883 36.7884 90.0255C36.9512 89.944 37.1209 89.9033 37.2973 89.9033C37.5687 89.9033 37.8197 89.9983 38.0504 90.1883C38.2811 90.3783 38.3965 90.6293 38.3965 90.9415C38.3965 91.2807 38.2472 91.5385 37.9486 91.715C37.4601 92.0135 36.9241 92.2306 36.3406 92.3663C35.7706 92.502 35.1871 92.5699 34.59 92.5699C33.8437 92.5699 33.1448 92.4477 32.4934 92.2035C31.8556 91.9592 31.2993 91.6132 30.8243 91.1654C30.3629 90.7175 29.9965 90.1747 29.7251 89.5369C29.4673 88.8991 29.3384 88.1867 29.3384 87.3996C29.3384 86.694 29.4605 86.029 29.7048 85.4048C29.9626 84.767 30.3154 84.2174 30.7632 83.756C31.211 83.2947 31.7471 82.9283 32.3713 82.6569C32.9955 82.3855 33.6808 82.2498 34.4272 82.2498C34.9836 82.2498 35.4992 82.3312 35.9742 82.494C36.4627 82.6433 36.9037 82.8604 37.2973 83.1454C37.6908 83.4304 38.0301 83.7832 38.315 84.2039C38.6136 84.611 38.8511 85.0656 39.0275 85.5677C39.0953 85.7984 39.1564 86.0426 39.2107 86.3004C39.2785 86.5583 39.3124 86.8093 39.3124 87.0536ZM36.8495 86.4836C36.8359 86.253 36.7816 86.0087 36.6866 85.7509C36.5916 85.493 36.4491 85.2623 36.2592 85.0588C36.0692 84.8417 35.8181 84.6652 35.506 84.5295C35.2075 84.3803 34.8479 84.3056 34.4272 84.3056C34.0201 84.3056 33.6673 84.3735 33.3687 84.5092C33.0837 84.6449 32.8463 84.8213 32.6563 85.0384C32.4663 85.242 32.317 85.4727 32.2085 85.7305C32.0999 85.9883 32.032 86.2394 32.0049 86.4836H36.8495Z" fill="white"/>
<path d="M49.0165 89.4148C49.0165 89.8626 48.9215 90.2833 48.7315 90.6768C48.5415 91.0568 48.2634 91.3893 47.897 91.6742C47.5441 91.9456 47.1031 92.1628 46.5739 92.3256C46.0446 92.4884 45.4408 92.5699 44.7622 92.5699C44.4366 92.5699 44.077 92.5427 43.6834 92.4884C43.2899 92.4342 42.9031 92.3527 42.5232 92.2442C42.1568 92.1356 41.8175 91.9999 41.5054 91.8371C41.1933 91.6742 40.9626 91.4843 40.8133 91.2671C40.6912 91.1043 40.6301 90.9211 40.6301 90.7175C40.6301 90.4054 40.7387 90.1476 40.9558 89.944C41.1865 89.7405 41.4376 89.6387 41.709 89.6387C41.9125 89.6387 42.0889 89.6862 42.2382 89.7812C42.6317 90.0119 43.0592 90.2019 43.5206 90.3511C43.9955 90.5004 44.4501 90.5751 44.8844 90.5751C45.4543 90.5751 45.8682 90.4801 46.1261 90.2901C46.3975 90.0865 46.5332 89.8287 46.5332 89.5166C46.5332 89.2452 46.3839 89.0416 46.0853 88.9059C45.8004 88.7702 45.4408 88.6617 45.0065 88.5802C44.5858 88.4852 44.1177 88.3835 43.602 88.2749C43.0999 88.1664 42.6317 88.0035 42.1975 87.7864C41.7768 87.5693 41.4172 87.2707 41.1187 86.8908C40.8337 86.5108 40.6912 85.9951 40.6912 85.3438C40.6912 84.9366 40.7794 84.5499 40.9558 84.1835C41.1322 83.8035 41.3901 83.4711 41.7293 83.1861C42.0821 82.9011 42.5028 82.6772 42.9913 82.5144C43.4934 82.338 44.0702 82.2498 44.7215 82.2498C45.0472 82.2498 45.3865 82.2769 45.7393 82.3312C46.1057 82.3719 46.4517 82.4465 46.7774 82.5551C47.1167 82.6501 47.422 82.7722 47.6934 82.9215C47.9648 83.0707 48.1684 83.2472 48.3041 83.4507C48.4126 83.6 48.4669 83.7696 48.4669 83.9596C48.4669 84.231 48.3651 84.4617 48.1616 84.6517C47.958 84.8417 47.7205 84.9366 47.4491 84.9366C47.2592 84.9366 47.0963 84.8959 46.9606 84.8145C46.6485 84.6245 46.2957 84.482 45.9021 84.3871C45.5222 84.2785 45.1354 84.2242 44.7419 84.2242C44.2669 84.2242 43.887 84.3192 43.602 84.5092C43.3306 84.6992 43.1949 84.9299 43.1949 85.2013C43.1949 85.4455 43.3374 85.6287 43.6224 85.7509C43.9073 85.873 44.2669 85.9815 44.7012 86.0765C45.1354 86.158 45.6036 86.2597 46.1057 86.3819C46.6078 86.4904 47.076 86.6601 47.5102 86.8908C47.9445 87.1214 48.3041 87.4336 48.589 87.8271C48.874 88.2206 49.0165 88.7499 49.0165 89.4148Z" fill="white"/>
<path d="M56.2948 91.3893C56.2948 91.5521 56.2608 91.7082 56.193 91.8574C56.1387 91.9931 56.0369 92.1153 55.8877 92.2238C55.7384 92.3324 55.5281 92.4138 55.2567 92.4681C54.9853 92.5359 54.6392 92.5699 54.2185 92.5699C53.3093 92.5699 52.6173 92.346 52.1423 91.8981C51.6673 91.4368 51.4299 90.765 51.4299 89.883V84.7534H50.7989C50.4867 84.7534 50.2221 84.6449 50.005 84.4278C49.7879 84.1971 49.6793 83.9189 49.6793 83.5932C49.6793 83.2947 49.7879 83.0368 50.005 82.8197C50.2221 82.6026 50.4867 82.494 50.7989 82.494H51.4299V80.9674C51.4299 80.6145 51.552 80.316 51.7963 80.0717C52.0541 79.8139 52.373 79.685 52.753 79.685C53.1058 79.685 53.4043 79.8139 53.6486 80.0717C53.9064 80.316 54.0353 80.6145 54.0353 80.9674V82.494H55.0531C55.3517 82.494 55.6095 82.6094 55.8266 82.8401C56.0437 83.0572 56.1523 83.3218 56.1523 83.6339C56.1523 83.946 56.0437 84.2106 55.8266 84.4278C55.6095 84.6449 55.3517 84.7534 55.0531 84.7534H54.0353V89.1909C54.0353 89.5844 54.1303 89.8626 54.3203 90.0255C54.5239 90.1883 54.7274 90.2697 54.931 90.2697C54.9581 90.2697 54.992 90.2697 55.0328 90.2697C55.087 90.2697 55.1277 90.2697 55.1549 90.2697C55.5213 90.2697 55.7995 90.3783 55.9894 90.5954C56.193 90.8125 56.2948 91.0771 56.2948 91.3893Z" fill="white"/>
<path d="M59.0812 78.3619C59.5155 78.3619 59.8819 78.5112 60.1804 78.8097C60.479 79.0947 60.6282 79.4543 60.6282 79.8885C60.6282 80.3228 60.479 80.6892 60.1804 80.9877C59.8819 81.2863 59.5155 81.4355 59.0812 81.4355C58.6605 81.4355 58.2942 81.2863 57.982 80.9877C57.6835 80.6892 57.5342 80.3228 57.5342 79.8885C57.5342 79.4543 57.6835 79.0947 57.982 78.8097C58.2942 78.5112 58.6605 78.3619 59.0812 78.3619ZM60.384 91.1654C60.384 91.5182 60.255 91.8235 59.9972 92.0813C59.7529 92.3256 59.4476 92.4477 59.0812 92.4477C58.7284 92.4477 58.4231 92.3256 58.1652 92.0813C57.921 91.8235 57.7988 91.5182 57.7988 91.1654V83.6339C57.7988 83.2811 57.921 82.9825 58.1652 82.7383C58.4231 82.494 58.742 82.3719 59.1219 82.3719C59.4748 82.3719 59.7733 82.494 60.0176 82.7383C60.2618 82.9825 60.384 83.2811 60.384 83.6339V91.1654Z" fill="white"/>
</g>
<defs>
<linearGradient id="paint0_linear" x1="221" y1="-6.4863e-06" x2="-15.262" y2="119.952" gradientUnits="userSpaceOnUse">
<stop stop-color="#60D77A"/>
<stop offset="1" stop-color="#05A227"/>
</linearGradient>
<linearGradient id="paint1_linear" x1="221" y1="-6.4863e-06" x2="-15.262" y2="119.952" gradientUnits="userSpaceOnUse">
<stop stop-color="#60D77A"/>
<stop offset="1" stop-color="#05A227"/>
</linearGradient>
<linearGradient id="paint2_linear" x1="194.163" y1="81.1762" x2="214.099" y2="81.1762" gradientUnits="userSpaceOnUse">
<stop stop-color="#484BA3"/>
<stop offset="1" stop-color="#6468CC"/>
</linearGradient>
<linearGradient id="paint3_linear" x1="207.764" y1="76.6933" x2="231.383" y2="76.6933" gradientUnits="userSpaceOnUse">
<stop stop-color="#484BA3"/>
<stop offset="1" stop-color="#6468CC"/>
</linearGradient>
<linearGradient id="paint4_linear" x1="209.655" y1="115.554" x2="209.655" y2="25.1805" gradientUnits="userSpaceOnUse">
<stop stop-color="#484BA3"/>
<stop offset="1" stop-color="#6468CC"/>
</linearGradient>
</defs>
</svg>
