<svg width="36" height="36" viewBox="0 0 36 36" fill="none" xmlns="http://www.w3.org/2000/svg">
<path d="M18 3C9.71582 3 3 9.71582 3 18C3 26.2842 9.71582 33 18 33C26.2842 33 33 26.2842 33 18C32.9907 9.71973 26.2803 3.00928 18 3ZM18.5354 7.32446L23.75 5.23999C24.3418 5.50781 24.9143 5.81641 25.4634 6.16357L25.4771 6.17212C26.0166 6.51392 26.5322 6.89209 27.0205 7.30396L27.0625 7.34058C27.2815 7.5271 27.4944 7.72021 27.7014 7.91943C27.7275 7.94507 27.7549 7.96948 27.781 7.99561C27.998 8.20752 28.2083 8.42603 28.4116 8.65088C28.4285 8.66992 28.4446 8.68994 28.4614 8.70898C28.6399 8.90894 28.8115 9.11597 28.978 9.32642C29.0181 9.37646 29.0581 9.42651 29.0969 9.47656C29.2776 9.71045 29.4524 9.94849 29.6174 10.1941L28.5779 14.613L23.4634 16.3181L18.5366 12.376L18.5354 7.32446ZM6.90259 9.47949C6.94141 9.42944 6.98096 9.37939 7.021 9.32959C7.18555 9.12085 7.35571 8.91724 7.53149 8.71851C7.55054 8.69751 7.56812 8.67603 7.58691 8.65503C7.78906 8.42969 7.99829 8.21143 8.21509 8C8.23999 7.97559 8.26489 7.94995 8.29102 7.92749C8.49634 7.72949 8.70752 7.5376 8.92456 7.35205L8.97461 7.31006C9.4585 6.90112 9.96924 6.52539 10.5034 6.18506L10.5229 6.17261C11.0688 5.82617 11.6377 5.51807 12.2261 5.25L17.4646 7.32446V12.3745L12.5376 16.3159L7.4231 14.614L6.38354 10.1951C6.55005 9.94995 6.7229 9.7124 6.90259 9.47949ZM6.30005 25.6726C6.15308 25.4485 6.01245 25.2202 5.87842 24.9875L5.84595 24.9314C5.71265 24.7 5.58643 24.4646 5.46753 24.2256L5.46338 24.218C5.21289 23.7151 4.99292 23.1975 4.80493 22.668V22.6631C4.71606 22.4131 4.63501 22.157 4.56006 21.8994L4.53296 21.8044C4.46436 21.5625 4.4021 21.3179 4.34644 21.0706C4.34155 21.0464 4.33545 21.0234 4.33057 20.9995C4.20776 20.4409 4.11963 19.8755 4.06641 19.3059L7.1189 15.6431L12.198 17.3359L13.6721 23.2319L11.25 26.4546L6.30005 25.6726ZM21.3296 31.5964C21.0796 31.6584 20.823 31.7119 20.5664 31.76C20.5305 31.7671 20.4939 31.7729 20.458 31.7795C20.2395 31.8186 20.0186 31.8521 19.7971 31.8794C19.738 31.887 19.6794 31.895 19.6206 31.9021C19.415 31.926 19.2075 31.9441 18.9995 31.959C18.9341 31.9634 18.8694 31.97 18.804 31.9741C18.5381 31.9905 18.27 32 18 32C17.7527 32 17.5068 31.9934 17.2625 31.9805C17.2329 31.9805 17.2046 31.9756 17.175 31.9734C16.9575 31.9609 16.741 31.9446 16.5249 31.9236L16.5 31.9189C16.0266 31.8677 15.5559 31.7925 15.0901 31.6941L12.1326 27.0635L14.5166 23.8845H21.4834L23.9065 27.0845L21.3296 31.5964ZM31.6731 21C31.668 21.0239 31.6621 21.0471 31.657 21.071C31.6011 21.3181 31.5388 21.5627 31.4705 21.8049L31.4436 21.8999C31.3684 22.1575 31.2876 22.4126 31.1985 22.6636V22.6685C31.0105 23.198 30.7908 23.7156 30.54 24.2185L30.5359 24.2261C30.4163 24.4653 30.2903 24.7007 30.1575 24.9319L30.125 24.988C29.9917 25.2214 29.8513 25.4492 29.7041 25.6721L24.771 26.45L22.332 23.23L23.8054 17.3354L28.8845 15.6426L31.937 19.3054C31.884 19.8752 31.7959 20.4412 31.6731 21Z" fill="#5D748A"/>
</svg>
