<svg width="339" height="248" viewBox="0 0 339 248" fill="none" xmlns="http://www.w3.org/2000/svg">
<path fill-rule="evenodd" clip-rule="evenodd" d="M9.2978 165.246C10.0332 165.378 10.4744 167.982 10.6656 169.496C11.0194 170.15 11.2864 170.847 11.4598 171.57C11.4915 171.775 11.4915 171.983 11.4598 172.188C16.6377 174.185 21.9323 175.864 27.3143 177.218C32.9382 178.635 38.8151 178.721 44.4779 177.468C46.8163 178.012 46.1104 185.101 45.1691 185.292C42.4482 185.954 33.7856 185.469 25.5495 182.483C19.9848 180.439 14.6588 177.795 9.66548 174.6C9.44591 174.63 9.22322 174.63 9.00365 174.6C7.60973 174.33 6.24886 173.91 4.94441 173.35C1.57642 173.203 0.532194 173.011 0.532194 172.6C0.399828 171.776 2.75301 172.158 4.38553 172.011C4.73851 172.011 4.76792 171.791 4.63556 171.732C3.01774 170.688 -0.364956 169.776 0.032143 168.952C0.752805 168.026 5.07678 170.732 5.01795 170.173C5.48858 169.908 0.10568 166.908 0.78222 165.908C1.45876 164.908 6.28278 169.717 6.56222 169.276C6.84166 168.835 3.5325 165.143 4.38553 164.761C5.23856 164.378 6.69459 167.143 8.12121 168.717C8.19474 168.717 8.5183 169.349 9.01836 169.143C8.76833 167.452 8.72421 165.114 9.38604 165.217L9.2978 165.246Z" fill="#FBD6A0"/>
<path fill-rule="evenodd" clip-rule="evenodd" d="M9.66551 174.6C14.6868 177.801 20.0426 180.444 25.6377 182.483C30.6599 184.285 35.926 185.316 41.257 185.542C42.0071 185.542 42.7277 185.542 43.3013 185.542C42.1835 180.747 41.6394 178.012 41.6394 178.012L41.4629 179.688C41.4326 181.033 41.6163 182.373 42.0071 183.659C41.3898 183.691 40.7712 183.691 40.1539 183.659C35.9463 183.541 31.7685 182.914 27.7115 181.792C21.9293 180.221 16.3878 177.87 11.2392 174.806C11.0186 174.541 11.2392 173.57 11.2392 173.57C10.4054 173.82 9.53399 173.919 8.66541 173.864C7.61442 173.805 6.59861 173.465 5.72393 172.879C4.9038 172.907 4.08271 172.873 3.2678 172.776C2.45889 172.688 1.39996 172.585 0.517518 172.467C0.50295 172.51 0.50295 172.557 0.517518 172.6C0.517518 173.011 1.62057 173.203 4.92974 173.35C6.23418 173.91 7.59506 174.329 8.98898 174.6C9.21338 174.631 9.44111 174.631 9.66551 174.6Z" fill="#F5CA8C"/>
<path fill-rule="evenodd" clip-rule="evenodd" d="M37.6095 150.377C39.6097 174.026 53.0522 192.204 42.757 212.677C100.792 208.721 94.8212 134.728 80.2903 122.256C72.2012 115.329 63.7445 115.755 57.5527 117.359C42.9188 121.124 35.5357 126.801 37.6095 150.377Z" fill="#763A20"/>
<path fill-rule="evenodd" clip-rule="evenodd" d="M321.683 93.5474L326.904 115.888L334.11 160.142C334.11 160.142 338.655 172.497 338.655 173.82C337.967 176.973 336.689 179.967 334.89 182.645C333.61 183.924 331.728 185.704 330.963 184.689C330.198 183.674 332.728 181.292 332.772 180.703C332.816 180.115 333.507 177.6 333.596 177.115C333.326 175.532 332.968 173.966 332.522 172.423C331.551 171.217 330.742 170.791 329.845 172.35C329.845 172.35 328.83 178.115 327.654 178.232C326.477 178.35 327.095 171.805 327.507 169.57C327.918 167.334 328.477 166.275 328.477 165.864C328.477 165.452 328.389 163.407 328.33 161.701L316.373 117.064L310.49 96.4741L321.683 93.5474Z" fill="#FBD6A0"/>
<path fill-rule="evenodd" clip-rule="evenodd" d="M327.463 178.071C326.566 177.424 327.125 171.57 327.463 169.467C327.801 167.364 328.434 166.172 328.434 165.761C328.434 165.349 328.345 163.305 328.287 161.598L316.329 116.962L312.991 105.431L321.918 104.622L317.506 109.711L330.86 161.187C330.86 161.187 328.845 167.584 327.919 171.879C327.516 173.917 327.363 175.996 327.463 178.071Z" fill="#E8BD80"/>
<path fill-rule="evenodd" clip-rule="evenodd" d="M196.817 163.055C199.038 189.954 190.36 226.605 190.36 226.605C187.845 231.738 187.639 256.02 185.375 281.17C182.897 281.688 180.375 281.969 177.844 282.008C177.227 271.242 172.388 244.666 175.168 226.12C174.447 221.502 173.403 165.04 173.403 165.04L196.817 163.055Z" fill="#FBD6A0"/>
<path fill-rule="evenodd" clip-rule="evenodd" d="M197.994 26.2317C208.671 50.2489 191.934 96.2536 186.801 94.3857L173.947 89.7235L175.418 39.233L197.994 26.2317Z" fill="#763A20"/>
<path fill-rule="evenodd" clip-rule="evenodd" d="M144.312 42.2921C144.312 56.6024 146.429 73.1776 156.386 89.3558L173.947 89.7382L174.491 21.7018C168.505 25.7904 144.282 35.1443 144.312 42.2921Z" fill="#763A20"/>
<path fill-rule="evenodd" clip-rule="evenodd" d="M160.872 164.143C159.578 165.805 151.886 159.628 151.886 159.628C147.915 171.967 152.224 200.529 152.651 225.237C152.651 225.237 153.165 278.096 154.121 280.669C156.327 280.669 161.578 280.802 161.578 280.802C163.416 262.594 167.549 246.328 167.079 226.178L174.535 162.113L160.872 164.143Z" fill="#FBD6A0"/>
<path fill-rule="evenodd" clip-rule="evenodd" d="M197.597 90.2383C198.567 89.1794 201.773 84.3553 201.773 84.3553L211.789 100.004C211.789 100.004 203.965 115.388 203.73 114.873C203.494 114.358 194.743 103.784 194.743 103.784L197.597 90.2383Z" fill="#AE4283"/>
<path fill-rule="evenodd" clip-rule="evenodd" d="M150.136 150.862C144.826 165.805 147.709 175.644 151.415 224.855L192.037 224.075C198.288 196.676 201.258 171.997 197.096 153.892L150.136 150.862Z" fill="#231916" stroke="#231916" stroke-width="0.22" stroke-miterlimit="22.93"/>
<path fill-rule="evenodd" clip-rule="evenodd" d="M177.477 81.8109C172.461 81.9139 160.872 82.4286 160.872 82.4286L146.165 84.1053C146.827 100.151 145.679 99.5774 152.312 120.653C155.651 137.155 147.518 138.728 146.9 158.892C161.166 160.79 178.286 162.878 199.097 159.554C200.097 141.023 193.39 138.611 196.155 120.344C197.935 108.578 201.714 84.3553 201.714 84.3553L190.081 82.4286L177.477 81.8109Z" fill="#AE4283"/>
<path fill-rule="evenodd" clip-rule="evenodd" d="M169.976 70.7362C170.476 79.9577 165.784 81.0314 160.843 82.5021C161.74 85.4436 170.123 87.1791 175.477 86.7379C180.815 87.1791 189.198 85.3701 190.184 82.5021C185.242 81.1196 179.065 80.2078 179.58 71.0009L174.065 70.9274L169.976 70.7362Z" fill="#FBD6A0"/>
<path d="M174.491 73.5894C187.414 73.5894 197.891 61.974 197.891 47.6456C197.891 33.3172 187.414 21.7018 174.491 21.7018C161.568 21.7018 151.092 33.3172 151.092 47.6456C151.092 61.974 161.568 73.5894 174.491 73.5894Z" fill="#FBD6A0"/>
<path fill-rule="evenodd" clip-rule="evenodd" d="M165.564 48.881C166.092 48.8752 166.607 48.7133 167.043 48.4157C167.479 48.1181 167.818 47.698 168.016 47.2084C168.214 46.7188 168.263 46.1816 168.156 45.6643C168.05 45.147 167.792 44.6728 167.417 44.3014C167.041 43.93 166.564 43.678 166.046 43.577C165.527 43.4761 164.991 43.5308 164.503 43.7342C164.016 43.9377 163.6 44.2807 163.307 44.7203C163.014 45.1598 162.858 45.6761 162.858 46.2043C162.86 46.5577 162.931 46.9073 163.068 47.2332C163.205 47.559 163.405 47.8546 163.656 48.1031C163.908 48.3517 164.205 48.5483 164.533 48.6818C164.86 48.8153 165.21 48.883 165.564 48.881Z" fill="#3E3A39"/>
<path fill-rule="evenodd" clip-rule="evenodd" d="M164.328 46.1161C164.491 46.1161 164.651 46.0678 164.786 45.9773C164.921 45.8868 165.027 45.7582 165.089 45.6077C165.152 45.4572 165.168 45.2916 165.136 45.1318C165.104 44.972 165.026 44.8253 164.911 44.7101C164.796 44.5949 164.649 44.5165 164.489 44.4847C164.329 44.4529 164.164 44.4692 164.013 44.5316C163.863 44.5939 163.734 44.6995 163.644 44.8349C163.553 44.9704 163.505 45.1296 163.505 45.2925C163.505 45.5109 163.592 45.7204 163.746 45.8749C163.9 46.0293 164.11 46.1161 164.328 46.1161Z" fill="#EEEEEF"/>
<path fill-rule="evenodd" clip-rule="evenodd" d="M168.093 42.101C165.803 41.715 163.459 41.785 161.196 42.3069C158.74 43.1011 157.607 41.8951 160.725 40.6596C163.09 39.8409 165.635 39.6933 168.079 40.2331C169.52 40.6449 169.579 42.4539 168.093 42.101Z" fill="#763A20"/>
<path fill-rule="evenodd" clip-rule="evenodd" d="M167.799 60.8235C167.946 63.9709 171.285 66.5005 175.388 66.5005C179.492 66.5005 182.845 63.9709 182.992 60.8235H167.799Z" fill="#4F2211"/>
<path fill-rule="evenodd" clip-rule="evenodd" d="M169.329 60.8235H181.462V62.2942C181.462 62.4464 181.402 62.5922 181.294 62.6998C181.187 62.8074 181.041 62.8678 180.889 62.8678H169.976C169.9 62.8698 169.825 62.8564 169.754 62.8283C169.684 62.8002 169.62 62.758 169.566 62.7043C169.512 62.6507 169.47 62.5866 169.442 62.5161C169.414 62.4456 169.4 62.3701 169.402 62.2942L169.329 60.8235Z" fill="white"/>
<path fill-rule="evenodd" clip-rule="evenodd" d="M172.344 54.9404C172.344 55.9111 173.668 56.6759 175.212 56.6759C176.756 56.6759 178.036 55.9111 178.153 54.9404H172.344Z" fill="#DF9C72"/>
<path fill-rule="evenodd" clip-rule="evenodd" d="M181.301 16.8777C165.887 30.2909 155.548 52.4696 145.268 57.4407C132.987 26.9964 156.96 6.31784 181.301 16.8777Z" fill="#763A20"/>
<path fill-rule="evenodd" clip-rule="evenodd" d="M163.681 27.217C156.166 37.6299 150.312 39.1594 153.386 73.3247C141.62 56.2641 141.091 34.306 165.402 22.7754L163.681 27.217Z" fill="#763A20"/>
<path fill-rule="evenodd" clip-rule="evenodd" d="M169.388 16.8777C147.165 36.5709 191.728 27.2906 200.273 45.4983C203.171 35.9238 199.494 9.56816 169.388 16.8777Z" fill="#763A20"/>
<path fill-rule="evenodd" clip-rule="evenodd" d="M206.068 90.7383C203.95 88.7823 193.817 96.5036 197.405 103.975C200.994 111.446 212.113 133.228 217.172 138.64C227.335 149.793 238.528 159.962 250.602 169.011L251.528 163.422C251.528 163.422 225.32 131.948 224.717 130.801C220.849 123.374 208.48 93.7239 206.068 90.7383Z" fill="#FBD6A0"/>
<path fill-rule="evenodd" clip-rule="evenodd" d="M184.801 49.0577C185.329 49.0519 185.844 48.89 186.28 48.5923C186.716 48.2947 187.055 47.8746 187.253 47.3851C187.451 46.8955 187.5 46.3582 187.393 45.8409C187.287 45.3236 187.029 44.8494 186.654 44.478C186.278 44.1066 185.801 43.8546 185.283 43.7537C184.765 43.6527 184.228 43.7074 183.741 43.9109C183.253 44.1143 182.837 44.4574 182.544 44.8969C182.251 45.3364 182.095 45.8528 182.095 46.3809C182.097 46.7344 182.168 47.084 182.305 47.4098C182.442 47.7356 182.642 48.0312 182.894 48.2798C183.145 48.5283 183.443 48.725 183.77 48.8584C184.097 48.9919 184.448 49.0596 184.801 49.0577Z" fill="#3E3A39"/>
<path fill-rule="evenodd" clip-rule="evenodd" d="M183.551 46.2631C183.713 46.2602 183.871 46.2094 184.004 46.1172C184.138 46.0249 184.241 45.8953 184.301 45.7446C184.361 45.5938 184.375 45.4287 184.342 45.2699C184.309 45.1112 184.229 44.9658 184.113 44.8521C183.997 44.7384 183.851 44.6614 183.691 44.6308C183.532 44.6001 183.367 44.6173 183.218 44.68C183.068 44.7428 182.94 44.8483 182.85 44.9834C182.76 45.1185 182.712 45.2772 182.712 45.4395C182.712 45.5489 182.734 45.6572 182.776 45.7581C182.819 45.859 182.881 45.9504 182.959 46.0271C183.037 46.1038 183.129 46.1641 183.231 46.2046C183.333 46.2452 183.441 46.265 183.551 46.2631Z" fill="#EEEEEF"/>
<path fill-rule="evenodd" clip-rule="evenodd" d="M180.874 41.7038C183.518 41.2086 186.234 41.2536 188.86 41.8362C191.728 42.7334 193.022 41.3215 189.39 39.9243C186.654 39.0266 183.726 38.8893 180.918 39.5272C179.212 40.0566 179.153 42.1451 180.874 41.7038Z" fill="#763A20"/>
<path fill-rule="evenodd" clip-rule="evenodd" d="M196.361 67.5005C202.391 54.4698 205.097 25.2315 184.301 18.1278C186.242 23.7019 196.964 28.4671 196.361 67.5005Z" fill="#763A20"/>
<path fill-rule="evenodd" clip-rule="evenodd" d="M248.616 92.8268L243.41 115.167L235.336 160.025L241.513 162.599L253.941 116.241L259.868 95.68L248.616 92.8268Z" fill="#FBD6A0"/>
<path fill-rule="evenodd" clip-rule="evenodd" d="M243.792 154.098L253.926 116.241L256.75 106.519L250.455 105.166L252.028 108.108C251.014 112.064 241.16 150.936 241.16 150.936L243.792 154.098Z" fill="#E8BD80"/>
<path fill-rule="evenodd" clip-rule="evenodd" d="M261.471 157.113C260.618 160.937 261.206 203.956 261.588 210.324C261.897 215.428 262.647 251.27 262.441 266.33C262.441 266.33 260.706 277.449 260.735 277.449L276.178 280.743C277.546 248.696 282.635 175.365 282.84 177.071C283.046 178.777 289.974 213.501 290.194 215.634C290.415 217.766 296.195 280.758 296.195 280.758C296.195 280.758 312.005 278.581 311.932 277.522C311.932 277.272 308.99 266.609 308.99 266.609C307.887 250.784 307.122 217.163 307.137 215.31C307.137 212.913 306.813 154.23 306.813 154.23L282.62 158.54L261.471 157.113Z" fill="#231916"/>
<path fill-rule="evenodd" clip-rule="evenodd" d="M270.78 68.795L257.75 71.4864C255.838 70.9569 253.264 73.0601 253.264 73.0601L244.116 103.799L257.441 106.74L258.911 101.96C260.336 122.941 260.665 143.981 259.897 164.996C268.633 169.143 298.901 167.452 306.858 164.202C307.99 137.552 309.373 116.388 310.681 100.107L313.52 109.608L325.021 102.946L317.05 73.7808C315.905 72.8249 314.492 72.2492 313.005 72.1335C308.505 70.8834 303.666 69.1921 299.769 68.3684C290.253 66.1329 282.752 66.3094 270.78 68.795Z" fill="#57B44B"/>
<path fill-rule="evenodd" clip-rule="evenodd" d="M278.016 57.5878C278.531 67.074 275.325 68.0888 270.236 69.5302C271.163 72.4716 279.796 74.3395 285.296 73.9424C290.797 74.3983 299.416 72.4716 300.357 69.5302C295.268 68.0594 291.679 67.074 292.209 57.5878L285.296 57.8084L278.016 57.5878Z" fill="#F1BD83"/>
<path fill-rule="evenodd" clip-rule="evenodd" d="M189.64 97.445C192.092 97.445 194.489 98.1721 196.528 99.5344C198.567 100.897 200.156 102.833 201.094 105.099C202.033 107.364 202.278 109.857 201.8 112.262C201.321 114.667 200.141 116.876 198.407 118.61C196.673 120.344 194.464 121.525 192.059 122.003C189.654 122.482 187.161 122.236 184.895 121.298C182.63 120.359 180.693 118.77 179.331 116.731C177.969 114.693 177.241 112.295 177.241 109.843C177.24 108.215 177.559 106.601 178.181 105.096C178.804 103.591 179.717 102.224 180.869 101.072C182.02 99.9203 183.388 99.0072 184.893 98.3848C186.398 97.7624 188.011 97.443 189.64 97.445Z" fill="#AE4283"/>
<path fill-rule="evenodd" clip-rule="evenodd" d="M142.517 89.5029C146.768 84.0318 156.931 91.9591 153.342 99.4157C149.753 106.872 136.355 123.168 133.943 130.11C132.119 135.405 129.295 158.054 126.78 168.349C123.707 169.82 119.53 166.54 119.206 164.672C119.206 164.672 123.456 134.346 125.618 127.904C128.266 119.991 135.87 98.6656 142.517 89.5029Z" fill="#FBD6A0"/>
<path fill-rule="evenodd" clip-rule="evenodd" d="M114.22 179.586C110.705 182.174 106.602 184.336 101.807 187.528C96.4832 178.365 90.6738 175.041 90.6738 175.041C87.9676 174.541 82.9083 178.674 83.7907 179.321C86.3645 181.262 95.5566 192.411 100.954 193.925C107.028 193.131 114.809 185.822 117.941 182.571C117.103 181.13 115.176 181.233 114.22 179.586Z" fill="#FBD6A0"/>
<path fill-rule="evenodd" clip-rule="evenodd" d="M115.206 168.761C114.279 169.173 114.5 178.144 113.941 180.218C115.706 180.924 116.191 182.204 117.735 182.821C119.206 181.012 122.148 179.88 122.912 177.424C125.501 176.718 127.736 175.865 127.325 174.982C126.913 174.1 124.28 175.644 122.427 175.938C122.103 175.085 127.839 171.644 126.663 170.688C125.927 170.099 122.471 173.188 121.28 173.732C121.103 173.364 125.883 167.981 124.913 167.54C123.942 167.099 120.824 171.232 119.677 172.585C119.868 170.599 120.971 166.893 120.177 166.923C119.383 166.952 118.118 170.452 117.618 172.291C117.618 172.379 117.132 174.262 116.515 174.188C116.323 172.232 115.941 168.452 115.235 168.746L115.206 168.761Z" fill="url(#paint0_linear)"/>
<path fill-rule="evenodd" clip-rule="evenodd" d="M219.849 236.474C219.216 241.827 216.451 274.992 217.363 275.183C218.275 275.375 226.864 276.566 226.864 276.566C226.864 276.566 232.571 252.24 233.027 254.902C233.482 257.564 237.086 276.022 237.733 276.389C238.38 276.757 247.028 276.566 247.028 275.728C247.028 274.889 245.19 239.886 245.19 239.886L219.849 236.474Z" fill="#2E2E35"/>
<path fill-rule="evenodd" clip-rule="evenodd" d="M218.201 201.014C215.613 199.632 202.744 196.117 202.744 196.117C202.303 194.47 196.184 188.41 192.449 185.174C192.916 183.751 193.139 182.26 193.111 180.762C193.258 178.027 193.699 175.879 193.111 175.541C192.522 175.203 190.993 179.497 190.993 179.497C190.993 179.497 189.404 172.261 188.154 172.144C186.904 172.026 189.375 179.497 189.198 179.174C189.022 178.85 184.933 172.35 184.301 173.026C183.668 173.703 186.772 179.586 186.683 179.909C186.595 180.233 181.404 174.159 180.889 175.365C180.374 176.571 185.389 180.998 185.007 181.248C184.624 181.498 180.227 177.938 179.756 178.777C179.286 179.615 184.316 183.424 184.316 183.424C185.433 185.057 186.742 186.704 188.625 187.042C191.257 190.822 196.876 198.617 199.832 200.75C203.803 203.603 212.716 208.103 213.069 207.353C213.422 206.603 218.201 201.014 218.201 201.014Z" fill="#FBD6A0"/>
<path fill-rule="evenodd" clip-rule="evenodd" d="M245.572 199.573C248.16 198.19 261.029 194.675 261.029 194.675C261.471 193.043 267.589 186.969 271.325 183.733C270.856 182.31 270.632 180.818 270.663 179.321C270.516 176.585 270.074 174.423 270.663 174.1C271.251 173.776 272.781 178.041 272.781 178.041C272.781 178.041 274.369 170.805 275.619 170.688C276.869 170.57 274.398 178.041 274.575 177.732C274.751 177.424 278.84 170.908 279.472 171.57C280.105 172.232 277.002 178.144 277.105 178.453C277.207 178.762 282.37 172.702 282.885 173.908C283.399 175.114 278.384 179.541 278.766 179.791C279.149 180.041 283.546 176.497 284.017 177.335C284.488 178.174 279.458 181.983 279.458 181.983C278.34 183.601 277.031 185.263 275.148 185.586C272.516 189.366 266.898 197.161 263.941 199.293C259.97 202.235 251.058 206.647 250.705 205.897C250.352 205.147 245.572 199.573 245.572 199.573Z" fill="#FBD6A0"/>
<path fill-rule="evenodd" clip-rule="evenodd" d="M255.588 202.014C258.569 200.849 261.318 199.16 263.706 197.028C264.662 196.108 265.557 195.126 266.383 194.087L267.854 192.234C270.663 188.66 273.531 184.63 273.531 184.63C274.411 184.748 275.304 184.544 276.046 184.057C277.137 183.34 278.057 182.391 278.737 181.277L284.032 177.321V177.6C283.649 178.791 279.458 182.012 279.458 182.012C278.34 183.63 277.031 185.292 275.149 185.616C273.516 187.969 270.736 191.851 268.148 194.984C267.662 195.572 267.177 196.146 266.677 196.675C265.839 197.641 264.913 198.527 263.912 199.323C261.014 201.294 257.965 203.035 254.793 204.529L253.543 200.352C253.518 200.173 253.463 199.999 253.382 199.838C253.382 199.838 254.999 202.014 255.588 202.014Z" fill="#F6C987"/>
<path fill-rule="evenodd" clip-rule="evenodd" d="M225.202 201.602L211.157 198.44L208.362 207.691L217.304 213.81L216.937 244.401L247.16 243.298C247.16 243.298 243.013 213.354 244.307 212.986C245.601 212.618 255.779 206.529 255.779 206.529L252.97 196.764L238.821 201.338L225.202 201.602Z" fill="#B9A13E"/>
<path fill-rule="evenodd" clip-rule="evenodd" d="M229.453 196.47C229.453 196.47 229.07 200.882 228.702 200.882C228.335 200.882 224.29 201.382 224.29 201.382C224.29 201.382 225.555 207.147 231.262 207.147C236.968 207.147 239.233 201.485 239.233 201.485L235.13 201.117L234.762 197.249L229.453 196.47Z" fill="#FBD6A0"/>
<path fill-rule="evenodd" clip-rule="evenodd" d="M58.9059 226.34C58.5382 231.061 56.3468 247.622 55.9644 249.446C55.4349 252.093 48.1548 286.111 49.4049 289.023C49.5373 289.347 52.464 288.861 52.464 288.861C52.464 288.861 66.8773 241.989 67.245 240.709C67.6127 239.43 67.7891 229.605 65.9654 228.517C63.6961 227.543 61.3296 226.813 58.9059 226.34Z" fill="#FBD6A0"/>
<path fill-rule="evenodd" clip-rule="evenodd" d="M79.8197 229.826C79.8197 232.194 83.9231 249.269 87.0116 262.55C90.1002 275.831 92.0121 287.92 93.1005 287.92C94.3371 288.086 95.5509 288.392 96.7185 288.832L90.8355 230.194L79.8197 229.826Z" fill="#FBD6A0"/>
<path fill-rule="evenodd" clip-rule="evenodd" d="M56.3908 214.089C57.788 227.326 50.1696 241.71 51.0667 242.195C68.3332 251.578 83.423 243.666 99.2923 240.224C98.7481 239.327 90.1443 221.105 88.8353 210.059L56.3908 214.089Z" fill="#EC7477"/>
<path fill-rule="evenodd" clip-rule="evenodd" d="M56.5673 217.619C56.5673 229.782 50.2431 241.754 51.0667 242.195C58.1155 246.043 66.2367 247.46 74.172 246.225C69.1421 243.651 60.4059 239.606 59.7147 238.989C58.7146 238.062 59.347 229.399 59.347 228.296C59.347 227.193 60.4647 228.105 69.3921 227.002C78.3195 225.899 89.4236 219.648 89.4236 219.648C89.4236 219.648 82.8494 219.045 81.5551 218.854L56.7291 217.207L56.5673 217.619Z" fill="#EB6B70"/>
<path fill-rule="evenodd" clip-rule="evenodd" d="M89.0854 185.513C88.556 195.278 89.2766 205.044 92.2475 218.928C86.0887 220.715 79.768 221.888 73.3779 222.428C63.5534 223.164 54.4495 223.384 54.4495 223.384C54.4495 223.384 55.6997 213.677 53.3759 194.808C52.9788 191.572 52.6111 188.925 52.2875 186.763C48.5355 186.983 44.7737 186.983 41.0217 186.763L39.8451 177.747C50.5668 175.188 60.9796 172.467 64.024 171.32C74.6281 170.011 77.0548 169.261 88.4236 171.673C92.1004 174.497 95.1155 177.35 100.292 184.395L93.88 190.278C93.88 190.278 90.5562 186.954 89.0854 185.513Z" fill="#796BAE"/>
<path fill-rule="evenodd" clip-rule="evenodd" d="M61.5825 164.378C63.2003 172.158 60.9942 171.732 57.1703 173.659C63.9945 181.895 76.6576 177.953 77.9077 170.452C70.554 170.452 72.8925 169.879 70.0834 162.54L61.5825 164.378Z" fill="#F6CB8A"/>
<path fill-rule="evenodd" clip-rule="evenodd" d="M60.6855 122.389C49.0372 123.712 40.7864 135.272 42.2718 148.185C43.7573 161.098 54.3613 167.952 66.0096 166.614C77.6578 165.275 85.9381 156.318 84.4526 143.376C82.9672 130.433 72.3484 121.124 60.6855 122.389Z" fill="#FBD6A0"/>
<path fill-rule="evenodd" clip-rule="evenodd" d="M84.673 136.67C82.4963 135.905 74.1572 136.434 65.3475 137.787L60.5235 133.169C60.5235 133.478 61.9942 136.111 63.1561 138.126C59.0482 138.799 54.9784 139.687 50.9637 140.788L49.1694 137.39L50.1107 141.038C45.3749 142.508 41.9039 144.082 41.2862 145.818C40.4389 140.823 40.4389 135.722 41.2862 130.728C44.1983 115.873 80.8197 107.725 84.673 136.67Z" fill="#763A20"/>
<path fill-rule="evenodd" clip-rule="evenodd" d="M119.971 160.113C118.588 166.378 118.338 165.555 115.823 169.688C113.308 173.82 113.706 179.527 113.882 181.218C114.22 184.263 117.279 186.425 119.927 185.086C122.118 183.983 124.089 180.13 124.898 179.203C124.898 179.203 125.354 182.601 126.648 180.395C127.942 178.188 127.383 165.687 127.383 165.687L119.971 160.113Z" fill="#FBD6A0"/>
<path fill-rule="evenodd" clip-rule="evenodd" d="M140.855 120.006C137.8 117.043 133.998 114.964 129.854 113.991C130.119 111.049 137.737 82.7963 149.459 83.7376C150.577 83.8258 156.43 89.1352 155.592 96.9742C154.519 106.74 140.855 120.006 140.855 120.006Z" fill="#AE4283"/>
<path fill-rule="evenodd" clip-rule="evenodd" d="M205.832 121.124C210.701 116.079 217.451 114.594 217.422 114.388C217.157 111.446 210.348 83.0463 198.626 83.9729C197.508 84.0611 191.655 89.3705 192.493 97.2095C193.508 106.931 205.832 121.124 205.832 121.124Z" fill="#AE4283"/>
<path fill-rule="evenodd" clip-rule="evenodd" d="M160.328 98.7244C162.779 98.7273 165.175 99.4569 167.212 100.821C169.249 102.185 170.836 104.123 171.772 106.388C172.708 108.654 172.951 111.146 172.471 113.55C171.991 115.955 170.809 118.162 169.075 119.895C167.34 121.627 165.131 122.807 162.727 123.284C160.322 123.761 157.83 123.515 155.565 122.576C153.3 121.637 151.365 120.048 150.003 118.009C148.642 115.971 147.915 113.574 147.915 111.123C147.915 109.493 148.236 107.88 148.86 106.375C149.484 104.869 150.399 103.502 151.551 102.351C152.704 101.199 154.073 100.286 155.579 99.6639C157.085 99.0417 158.698 98.7224 160.328 98.7244Z" fill="#AE4283"/>
<path fill-rule="evenodd" clip-rule="evenodd" d="M215.275 185.66C216.161 185.749 217.053 185.567 217.834 185.14C218.615 184.712 219.249 184.058 219.651 183.264C220.054 182.47 220.207 181.572 220.09 180.689C219.973 179.807 219.591 178.98 218.995 178.318C218.4 177.656 217.618 177.19 216.752 176.981C215.886 176.772 214.978 176.829 214.145 177.146C213.313 177.463 212.596 178.025 212.089 178.757C211.582 179.489 211.308 180.357 211.304 181.247C211.248 182.358 211.634 183.447 212.378 184.273C213.122 185.1 214.164 185.599 215.275 185.66Z" fill="#FBD6A0"/>
<path fill-rule="evenodd" clip-rule="evenodd" d="M214.26 178.865C215.128 178.865 215.937 180.056 216.069 181.542C216.201 183.027 215.598 184.218 214.731 184.218C213.863 184.218 213.054 183.012 212.922 181.542C212.789 180.071 213.392 178.865 214.26 178.865Z" fill="#EDA46C"/>
<path fill-rule="evenodd" clip-rule="evenodd" d="M249.793 185.66C250.679 185.749 251.571 185.567 252.353 185.14C253.134 184.712 253.767 184.058 254.17 183.264C254.572 182.47 254.725 181.572 254.608 180.689C254.491 179.807 254.109 178.98 253.514 178.318C252.918 177.656 252.136 177.19 251.27 176.981C250.405 176.772 249.496 176.829 248.664 177.146C247.832 177.463 247.115 178.025 246.607 178.757C246.1 179.489 245.826 180.357 245.822 181.247C245.766 182.358 246.152 183.447 246.896 184.273C247.641 185.1 248.682 185.599 249.793 185.66Z" fill="#FBD6A0"/>
<path fill-rule="evenodd" clip-rule="evenodd" d="M250.867 178.865C249.999 178.865 249.175 180.056 249.043 181.542C248.911 183.027 249.514 184.218 250.381 184.218C251.249 184.218 252.073 183.012 252.205 181.542C252.337 180.071 251.69 178.865 250.867 178.865Z" fill="#EDA46C"/>
<path fill-rule="evenodd" clip-rule="evenodd" d="M214.363 183.527C213.995 183.292 210.127 177.262 213.275 169.084C216.422 160.907 223.349 164.422 223.349 164.422L222.099 168.187C221.525 169.246 214.745 183.762 214.363 183.527Z" fill="#A95C40"/>
<path d="M232.526 199.088C242.631 199.088 250.822 191.12 250.822 181.292C250.822 171.463 242.631 163.496 232.526 163.496C222.422 163.496 214.23 171.463 214.23 181.292C214.23 191.12 222.422 199.088 232.526 199.088Z" fill="#FBD6A0"/>
<path fill-rule="evenodd" clip-rule="evenodd" d="M240.777 178.483C241.19 178.495 241.596 178.592 241.971 178.766C242.346 178.941 242.681 179.19 242.956 179.498C243.231 179.806 243.441 180.167 243.572 180.559C243.703 180.951 243.753 181.365 243.719 181.777C243.541 182.592 243.058 183.309 242.369 183.779C241.68 184.25 240.837 184.439 240.013 184.307C239.607 184.283 239.209 184.178 238.844 183.998C238.48 183.819 238.154 183.568 237.887 183.262C237.62 182.955 237.417 182.598 237.289 182.212C237.162 181.825 237.113 181.418 237.145 181.012C237.315 180.208 237.786 179.499 238.461 179.029C239.135 178.559 239.964 178.364 240.777 178.483Z" fill="white"/>
<path fill-rule="evenodd" clip-rule="evenodd" d="M224.511 178.262C224.915 178.292 225.308 178.401 225.669 178.584C226.03 178.767 226.351 179.019 226.614 179.327C226.876 179.635 227.075 179.992 227.199 180.377C227.323 180.762 227.369 181.168 227.335 181.571C227.161 182.388 226.678 183.107 225.988 183.578C225.298 184.049 224.453 184.236 223.629 184.101C223.223 184.077 222.826 183.972 222.461 183.792C222.096 183.613 221.77 183.362 221.503 183.056C221.236 182.749 221.033 182.392 220.905 182.006C220.778 181.62 220.729 181.212 220.761 180.806C220.935 179.979 221.423 179.252 222.123 178.777C222.822 178.303 223.678 178.118 224.511 178.262Z" fill="white"/>
<path fill-rule="evenodd" clip-rule="evenodd" d="M250.337 184.219C253.808 176.482 254.279 173.203 249.131 167.011C245.513 156.569 230.541 160.084 232.262 153.112C223.643 154.436 216.628 163.525 217.216 168.835C217.599 172.217 224.938 174.085 236.424 172.6C244.322 171.585 246.013 171.129 246.013 171.129C251.367 177.012 249.69 177.115 250.337 184.219Z" fill="#A95C40"/>
<path fill-rule="evenodd" clip-rule="evenodd" d="M240.571 183.027C240.937 182.976 241.281 182.821 241.562 182.581C241.842 182.34 242.047 182.024 242.153 181.669C242.259 181.315 242.26 180.938 242.157 180.583C242.054 180.228 241.852 179.91 241.573 179.667C241.295 179.424 240.952 179.266 240.587 179.213C240.221 179.159 239.847 179.212 239.511 179.364C239.174 179.517 238.889 179.763 238.688 180.074C238.488 180.384 238.381 180.746 238.38 181.115C238.421 181.658 238.674 182.162 239.084 182.52C239.494 182.877 240.028 183.06 240.571 183.027Z" fill="#3E3A39"/>
<path fill-rule="evenodd" clip-rule="evenodd" d="M239.557 181.042C239.643 181.055 239.731 181.05 239.814 181.026C239.898 181.003 239.976 180.961 240.042 180.904C240.108 180.848 240.162 180.778 240.198 180.698C240.235 180.619 240.253 180.533 240.253 180.446C240.253 180.359 240.235 180.273 240.198 180.194C240.162 180.115 240.108 180.044 240.042 179.988C239.976 179.931 239.898 179.889 239.814 179.866C239.731 179.842 239.643 179.837 239.557 179.85C239.47 179.837 239.382 179.842 239.299 179.866C239.215 179.889 239.137 179.931 239.071 179.988C239.005 180.044 238.951 180.115 238.915 180.194C238.878 180.273 238.86 180.359 238.86 180.446C238.86 180.533 238.878 180.619 238.915 180.698C238.951 180.778 239.005 180.848 239.071 180.904C239.137 180.961 239.215 181.003 239.299 181.026C239.382 181.05 239.47 181.055 239.557 181.042Z" fill="#EEEEEF"/>
<path fill-rule="evenodd" clip-rule="evenodd" d="M237.542 178.482C239.263 178.203 241.021 178.228 242.733 178.556C244.587 179.071 245.44 178.262 243.072 177.468C241.283 176.953 239.396 176.877 237.571 177.247C236.453 177.571 236.424 178.762 237.542 178.482Z" fill="#A95C40"/>
<path fill-rule="evenodd" clip-rule="evenodd" d="M224.158 182.718C224.518 182.668 224.856 182.514 225.132 182.277C225.407 182.039 225.609 181.728 225.712 181.379C225.816 181.03 225.817 180.659 225.715 180.31C225.613 179.96 225.413 179.648 225.139 179.409C224.865 179.17 224.528 179.015 224.168 178.962C223.808 178.91 223.44 178.962 223.109 179.112C222.778 179.262 222.497 179.505 222.299 179.811C222.102 180.116 221.997 180.472 221.996 180.836C222.034 181.372 222.282 181.871 222.688 182.224C223.093 182.577 223.622 182.755 224.158 182.718Z" fill="#3E3A39"/>
<path fill-rule="evenodd" clip-rule="evenodd" d="M223.158 180.748C223.239 180.754 223.321 180.743 223.398 180.718C223.475 180.692 223.547 180.652 223.608 180.598C223.67 180.545 223.72 180.48 223.756 180.407C223.793 180.334 223.814 180.255 223.82 180.174C223.808 180.009 223.733 179.855 223.609 179.745C223.485 179.635 223.323 179.578 223.158 179.586C222.991 179.577 222.827 179.634 222.701 179.744C222.575 179.853 222.496 180.007 222.481 180.174C222.496 180.339 222.576 180.492 222.702 180.599C222.829 180.707 222.992 180.76 223.158 180.748Z" fill="#EEEEEF"/>
<path fill-rule="evenodd" clip-rule="evenodd" d="M226.261 178.35C224.701 178.094 223.107 178.118 221.555 178.424C219.864 178.88 219.099 178.144 221.231 177.424C222.859 176.962 224.574 176.896 226.232 177.233C227.232 177.483 227.335 178.571 226.261 178.35Z" fill="#A95C40"/>
<path fill-rule="evenodd" clip-rule="evenodd" d="M226.702 190.249C226.805 192.763 229.32 194.778 232.409 194.778C235.497 194.778 237.998 192.763 238.115 190.249H226.702Z" fill="#4F2211"/>
<path fill-rule="evenodd" clip-rule="evenodd" d="M227.849 190.249H236.953V191.366C236.955 191.424 236.946 191.482 236.925 191.536C236.905 191.591 236.874 191.64 236.835 191.683C236.795 191.725 236.747 191.759 236.695 191.783C236.642 191.807 236.585 191.82 236.527 191.822H228.276C228.218 191.82 228.161 191.807 228.108 191.783C228.055 191.759 228.008 191.725 227.968 191.683C227.929 191.64 227.898 191.591 227.877 191.536C227.857 191.482 227.848 191.424 227.849 191.366V190.249Z" fill="white"/>
<path fill-rule="evenodd" clip-rule="evenodd" d="M229.688 186.616C229.688 187.278 230.997 187.807 232.527 187.807C234.056 187.807 235.306 187.278 235.35 186.616H229.688Z" fill="#DF9C72"/>
<path fill-rule="evenodd" clip-rule="evenodd" d="M243.366 167.79C244.338 168.844 245.224 169.976 246.013 171.173C246.013 171.173 246.646 172.129 241.439 173.923C236.233 175.718 234.203 175.071 234.659 174.982C235.512 174.561 236.329 174.069 237.1 173.512C234.118 174.183 231.081 174.586 228.026 174.718C223.746 174.806 221.952 174.159 222.731 174.115C223.609 173.961 224.461 173.684 225.261 173.291C224.761 173.423 223.423 174.438 220.113 173.012C216.804 171.585 215.363 168.32 216.01 168.599C218.94 168.545 221.863 168.299 224.761 167.864C227.055 167.511 243.366 167.79 243.366 167.79Z" fill="#A95C40"/>
<path fill-rule="evenodd" clip-rule="evenodd" d="M74.3781 142.303C74.8521 142.339 75.314 142.47 75.7367 142.688C76.1594 142.906 76.5344 143.205 76.8398 143.57C77.1453 143.934 77.3749 144.356 77.5154 144.81C77.6558 145.264 77.7043 145.742 77.6579 146.215C77.4719 147.156 76.9281 147.989 76.1409 148.537C75.3536 149.086 74.3843 149.308 73.4368 149.156C72.9623 149.119 72.4998 148.988 72.0764 148.771C71.653 148.553 71.277 148.254 70.9704 147.89C70.6638 147.526 70.4327 147.104 70.2906 146.65C70.1484 146.196 70.098 145.718 70.1424 145.244C70.335 144.303 70.8826 143.473 71.6713 142.925C72.46 142.377 73.4293 142.154 74.3781 142.303Z" fill="white"/>
<path fill-rule="evenodd" clip-rule="evenodd" d="M54.8172 145.715C55.2905 145.75 55.7521 145.879 56.1747 146.095C56.5973 146.311 56.9724 146.609 57.278 146.972C57.5836 147.336 57.8135 147.756 57.9541 148.209C58.0948 148.663 58.1433 149.14 58.0969 149.612C57.9076 150.555 57.3609 151.387 56.5712 151.936C55.7816 152.484 54.8105 152.705 53.8612 152.553C53.3879 152.518 52.9263 152.389 52.5037 152.173C52.0811 151.957 51.7059 151.659 51.4003 151.296C51.0947 150.932 50.8648 150.512 50.7242 150.059C50.5836 149.605 50.535 149.128 50.5814 148.656C50.7708 147.714 51.3175 146.881 52.1071 146.333C52.8967 145.784 53.8679 145.563 54.8172 145.715Z" fill="white"/>
<path fill-rule="evenodd" clip-rule="evenodd" d="M73.4368 142.994C72.9711 143.051 72.5327 143.245 72.1767 143.551C71.8207 143.857 71.5629 144.261 71.4357 144.712C71.3085 145.164 71.3175 145.643 71.4616 146.09C71.6057 146.536 71.8785 146.931 72.2457 147.223C72.613 147.515 73.0583 147.692 73.5259 147.732C73.9935 147.772 74.4624 147.673 74.874 147.448C75.2855 147.222 75.6213 146.88 75.8392 146.465C76.0572 146.049 76.1475 145.578 76.0989 145.111C76.025 144.478 75.7036 143.9 75.2048 143.503C74.706 143.107 74.0704 142.923 73.4368 142.994Z" fill="#3E3A39"/>
<path fill-rule="evenodd" clip-rule="evenodd" d="M72.4072 143.905C72.2639 143.923 72.129 143.983 72.0194 144.077C71.9099 144.171 71.8304 144.296 71.791 144.435C71.7517 144.573 71.7541 144.721 71.798 144.859C71.8419 144.996 71.9253 145.118 72.0379 145.208C72.1505 145.299 72.2872 145.354 72.4311 145.367C72.5749 145.381 72.7194 145.351 72.8467 145.283C72.9739 145.214 73.0782 145.11 73.1465 144.983C73.2148 144.856 73.2441 144.711 73.2308 144.567C73.2217 144.469 73.193 144.374 73.1463 144.287C73.0996 144.2 73.036 144.124 72.9592 144.062C72.8823 144 72.7939 143.954 72.6991 143.928C72.6042 143.901 72.505 143.893 72.4072 143.905Z" fill="#EEEEEF"/>
<path fill-rule="evenodd" clip-rule="evenodd" d="M54.0524 146.626C53.5958 146.692 53.1686 146.891 52.824 147.197C52.4793 147.504 52.2324 147.905 52.114 148.351C51.9955 148.797 52.0108 149.268 52.1577 149.705C52.3047 150.142 52.577 150.527 52.9407 150.811C53.3045 151.094 53.7436 151.265 54.2035 151.301C54.6634 151.337 55.1238 151.238 55.5275 151.014C55.9311 150.791 56.2602 150.454 56.4739 150.045C56.6875 149.636 56.7763 149.174 56.7291 148.715C56.6947 148.4 56.5976 148.096 56.4435 147.819C56.2894 147.543 56.0814 147.3 55.8318 147.105C55.5823 146.91 55.2962 146.768 54.9906 146.685C54.685 146.603 54.3659 146.583 54.0524 146.626Z" fill="#3E3A39"/>
<path fill-rule="evenodd" clip-rule="evenodd" d="M53.0377 147.597C52.9409 147.606 52.847 147.635 52.7612 147.68C52.6754 147.726 52.5996 147.788 52.538 147.863C52.4765 147.939 52.4305 148.025 52.4026 148.118C52.3748 148.212 52.3657 148.309 52.3759 148.406C52.391 148.55 52.4485 148.687 52.5412 148.799C52.6339 148.91 52.7575 148.992 52.8965 149.034C53.0356 149.075 53.1838 149.075 53.3226 149.032C53.4614 148.99 53.5844 148.907 53.6763 148.795C53.7682 148.682 53.8248 148.545 53.839 148.401C53.8532 148.257 53.8244 148.111 53.7561 147.983C53.6878 147.855 53.5831 147.75 53.4553 147.681C53.3275 147.613 53.1822 147.583 53.0377 147.597Z" fill="#EEEEEF"/>
<path fill-rule="evenodd" clip-rule="evenodd" d="M56.8614 145.023C54.7046 144.887 52.5425 145.192 50.5079 145.92C48.3164 146.921 47.1399 145.92 49.8901 144.45C51.9828 143.458 54.3082 143.061 56.6114 143.303C58.0233 143.523 58.1998 145.185 56.8614 145.023Z" fill="#A95C40"/>
<path fill-rule="evenodd" clip-rule="evenodd" d="M60.4354 157.892C60.7721 159.218 61.5895 160.372 62.729 161.129C63.8684 161.886 65.2486 162.192 66.6014 161.989C67.9542 161.785 69.1831 161.086 70.0494 160.028C70.9158 158.969 71.3578 157.626 71.2895 156.26L60.4354 157.892Z" fill="#4F2211"/>
<path fill-rule="evenodd" clip-rule="evenodd" d="M61.5383 157.76L70.2009 156.451L70.3774 157.672C70.4043 157.79 70.3841 157.915 70.321 158.019C70.2579 158.124 70.1569 158.199 70.0391 158.231L62.2001 159.407C62.0801 159.411 61.9629 159.37 61.8727 159.29C61.7824 159.211 61.7259 159.1 61.7148 158.981L61.5383 157.76Z" fill="white"/>
<path fill-rule="evenodd" clip-rule="evenodd" d="M61.7004 151.524C61.8622 152.348 63.2888 152.862 64.9655 152.686C66.6421 152.509 67.907 151.7 67.907 150.862L61.7004 151.524Z" fill="#DF9C72"/>
<path fill-rule="evenodd" clip-rule="evenodd" d="M69.701 141.832C71.7434 141.116 73.9106 140.826 76.0693 140.979C78.4372 141.346 79.3049 140.067 76.2605 139.39C73.9782 139.008 71.6348 139.252 69.4804 140.096C68.1861 140.699 68.392 142.361 69.701 141.832Z" fill="#A95C40"/>
<path fill-rule="evenodd" clip-rule="evenodd" d="M55.5821 120.094C38.801 124.256 39.6981 137.978 40.6982 139.582C40.1099 131.993 51.214 125.301 57.9059 123.845C74.7311 120.183 82.0995 131.198 82.0848 131.198C76.7901 119.741 70.5983 116.388 55.5821 120.094Z" fill="#EF8200"/>
<path fill-rule="evenodd" clip-rule="evenodd" d="M53.3317 194.808C55.6555 213.677 54.4054 223.384 54.4054 223.384C54.4054 223.384 55.479 223.384 57.2733 223.296C60.7148 223.178 66.8772 222.914 73.3338 222.428C78.5742 221.994 83.7692 221.123 88.8648 219.825C90.9532 219.31 92.2033 218.928 92.2033 218.928C89.6982 208.358 88.6149 197.502 88.9824 186.645C88.9824 186.263 88.9824 185.88 88.9824 185.513L89.2913 185.807C90.9238 187.351 93.7035 190.219 93.7035 190.219L94.2771 189.69L97.0421 187.307C97.0421 187.307 93.4388 184.822 90.4679 182.733C88.5559 181.38 86.9087 180.189 86.6881 179.939C86.4675 179.689 86.4527 180.498 86.4969 181.939C86.5704 183.924 86.7616 187.101 86.791 190.293C86.791 190.837 86.791 191.381 86.791 191.91C86.7028 197.896 89.9237 216.913 89.9237 216.913C89.9237 216.913 89.1148 216.913 87.7029 216.84C85.7468 216.84 82.6582 216.839 79.0843 217.06C77.5117 217.201 75.9496 217.442 74.4074 217.781C67.9803 219.09 59.7 221.546 57.8322 220.34C56.1555 219.266 54.8907 200.823 54.3759 189.66C54.1259 184.748 53.9935 181.248 53.9935 181.248C53.9935 181.248 52.6552 184.983 49.7137 184.616C49.0519 184.527 48.243 184.366 47.3458 184.174L45.8751 183.836C44.7279 183.542 43.566 183.218 42.61 182.954L41.6688 182.674L40.3451 182.277L40.5363 183.748H40.3451C40.3451 184.277 40.3451 184.91 40.3451 185.557H40.7716L40.9187 186.748C40.9187 186.748 45.125 187.013 49.1254 186.939C50.1843 186.939 51.2286 186.939 52.1845 186.792C52.3169 187.66 52.4493 188.601 52.5963 189.631C52.8611 191.131 53.0817 192.866 53.3317 194.808Z" fill="#7567AA"/>
<path fill-rule="evenodd" clip-rule="evenodd" d="M43.1542 138.39C43.1255 143.442 43.7333 148.477 44.9633 153.377C46.9488 160.51 52.567 170.746 52.111 170.335C51.6551 169.923 45.6545 166.364 42.7571 162.172C39.8598 157.98 39.345 143.891 39.345 143.891L43.1542 138.39Z" fill="#763A20"/>
<path fill-rule="evenodd" clip-rule="evenodd" d="M79.9814 130.904C81.9759 135.55 83.384 140.426 84.1731 145.42C85.1437 152.774 83.9672 164.378 84.1731 163.819C84.379 163.26 88.5853 157.642 89.5854 152.656C90.5855 147.67 85.5555 134.493 85.5555 134.493L79.9814 130.904Z" fill="#763A20"/>
<path fill-rule="evenodd" clip-rule="evenodd" d="M127.325 165.717C129.678 154.51 132.207 134.978 133.884 130.11C135.574 126.31 137.665 122.701 140.12 119.344C139.154 118.437 138.1 117.629 136.973 116.932C135.491 120.031 133.831 123.041 132.002 125.948C128.501 131.654 126.472 153.671 125.927 157.554C125.681 159.82 125.558 162.098 125.56 164.378C125.56 165.849 125.56 167.32 125.56 168.79C125.56 169.511 125.56 170.261 125.56 170.879C125.56 171.497 125.56 172.085 125.56 172.629C125.56 173.556 125.56 174.379 125.663 175.026C125.675 175.52 125.729 176.012 125.824 176.497C126.001 177.085 125.824 176.953 125.574 176.615C125.324 176.276 124.766 175.365 124.766 175.365L123.177 177.409L122.471 178.291L121.295 179.762L119.618 181.777C119.399 182.025 119.133 182.227 118.835 182.371C118.537 182.515 118.213 182.598 117.882 182.615C117.618 182.637 117.353 182.637 117.088 182.615C115.967 182.446 114.883 182.088 113.882 181.556C114.087 182.822 114.772 183.959 115.794 184.733C116.367 185.187 117.056 185.469 117.782 185.547C118.508 185.625 119.242 185.496 119.897 185.174C122.089 184.071 124.06 180.218 124.868 179.291C124.868 179.291 125.324 182.689 126.619 180.483C127.913 178.277 127.354 165.775 127.354 165.775L127.325 165.717Z" fill="#F7CD8D"/>
<path fill-rule="evenodd" clip-rule="evenodd" d="M148.43 107.152C147.224 108.917 143.209 114.623 142.017 114.505C140.547 114.388 137.031 116.917 137.031 116.917C138.159 117.614 139.213 118.422 140.179 119.329C140.414 119.535 140.635 119.756 140.855 119.991C143.395 117.457 145.773 114.765 147.974 111.932C148.081 113.604 148.528 115.237 149.286 116.731C150.045 118.225 151.099 119.55 152.386 120.624C154.541 121.804 156.819 122.741 159.181 123.418C160.049 123.683 161.005 123.962 162.034 124.227C168.77 125.977 174.109 122.477 175.035 122.756C175.962 123.036 188.566 124.418 191.522 123.3C193.265 122.673 194.847 121.669 196.155 120.359C198.264 119.034 199.929 117.108 200.935 114.829C203.553 118.52 205.774 121.08 205.774 121.08L206.024 120.83C206.599 120.255 207.208 119.714 207.848 119.212C206.775 117.399 205.611 115.642 204.362 113.946C203.428 112.672 202.625 111.308 201.965 109.873C200.935 107.784 199.803 105.24 198.847 102.842C198.553 102.151 198.288 101.46 198.038 100.798L197.464 99.2096C197.464 99.6067 197.597 100.019 197.655 100.445C197.92 102.136 198.17 104.048 198.376 105.887C198.369 105.965 198.369 106.044 198.376 106.122C198.464 106.975 198.538 107.813 198.611 108.608C198.714 109.784 198.773 110.843 198.773 111.711C198.825 112.384 198.76 113.06 198.582 113.711C198.151 114.526 197.549 115.239 196.817 115.8C194.009 118.066 190.498 119.283 186.89 119.241C184.625 119.241 182.61 118.991 181.007 118.785C179.369 118.624 177.749 118.314 176.168 117.859C175.638 117.638 172.859 118.785 169.461 119.506C166.861 120.157 164.148 120.223 161.519 119.697C155.489 118.226 155.342 116.108 152.857 111.593C152.139 110.039 151.729 108.361 151.651 106.652C151.539 105.321 151.495 103.986 151.518 102.651V102.386C151.577 99.7302 151.778 97.0791 152.121 94.4445L148.739 106.666C148.739 106.666 148.65 106.843 148.43 107.152Z" fill="#A93F80"/>
<path fill-rule="evenodd" clip-rule="evenodd" d="M206.083 120.815C210.157 128.301 214.525 135.758 217.172 138.625C221.805 143.655 226.644 148.538 231.673 153.215L232.262 153.112C232.262 153.303 232.262 153.495 232.159 153.671L235.88 157.039L236.6 153.039C234.203 151.053 230.026 147.818 225.482 143.817C220.378 139.331 212.569 126.595 207.833 119.197C207.219 119.702 206.634 120.242 206.083 120.815Z" fill="#F7CD8D"/>
<path fill-rule="evenodd" clip-rule="evenodd" d="M236.6 153.039L235.88 157.039L235.747 157.76C236.247 157.951 236.777 158.142 237.336 158.319C238.982 158.815 240.602 159.394 242.189 160.054L242.601 158.51C239.218 156.098 239.189 155.201 236.6 153.039Z" fill="#FAD297"/>
<path fill-rule="evenodd" clip-rule="evenodd" d="M242.601 158.51L242.189 160.054C243.732 160.625 245.137 161.513 246.315 162.661C247.493 163.808 248.417 165.19 249.028 166.717L249.131 166.584C249.131 166.584 249.881 167.378 250.705 168.334C250.705 168.026 250.808 167.731 250.852 167.423C249.478 164.491 247.377 161.96 244.748 160.069L242.601 158.51Z" fill="#FAD297"/>
<path fill-rule="evenodd" clip-rule="evenodd" d="M152.327 120.653C155.666 137.155 147.533 138.728 146.915 158.892L147.856 159.025C159.688 160.832 171.661 161.546 183.624 161.157C183.624 161.157 178.433 156.583 168.123 154.377C163.064 153.289 159.593 152.906 157.651 151.347C155.71 149.788 155.283 147.023 156.504 141.052C157.615 135.244 159.366 129.576 161.725 124.153C160.799 123.918 159.96 123.668 159.181 123.433C156.684 123.217 154.312 122.242 152.386 120.638L152.327 120.653Z" fill="#A93F80"/>
<path fill-rule="evenodd" clip-rule="evenodd" d="M175.168 226.135C172.388 244.666 177.227 271.242 177.845 282.023C178.926 282.072 180.009 282.018 181.08 281.861C180.977 280.728 180.83 279.258 180.668 277.552C179.58 266.403 177.727 245.195 178.212 239.709C178.595 235.9 179.683 229.635 180.727 224.34L175.021 224.443C175.065 225.223 175.124 225.811 175.168 226.135Z" fill="#F6CA87"/>
<path fill-rule="evenodd" clip-rule="evenodd" d="M161.931 286.788C161.799 284.861 161.652 282.611 161.549 280.802C163.387 262.594 167.52 246.328 167.049 226.178L167.24 224.561L152.651 224.825V225.237C152.651 225.237 152.651 226.017 152.651 227.399C155.151 227.311 163.328 227.09 163.725 228.267C164.122 229.444 157.739 269.815 158.284 274.61C158.401 275.536 158.519 276.434 158.637 277.287C158.828 278.566 159.004 279.743 159.151 280.758C159.417 281.919 159.417 283.126 159.151 284.287C157.814 285.406 156.329 286.336 154.739 287.052L161.931 286.788Z" fill="#F6CA87"/>
<path fill-rule="evenodd" clip-rule="evenodd" d="M101.425 191.043C99.5252 190.327 97.7412 189.336 96.1302 188.101L94.4095 189.675C96.2907 191.515 98.5141 192.969 100.954 193.955C105.94 193.308 112.073 188.263 115.838 184.674C115.49 184.413 115.179 184.106 114.912 183.762C112.382 185.424 103.16 191.44 101.425 191.043Z" fill="#FACE91"/>
<path fill-rule="evenodd" clip-rule="evenodd" d="M226.658 240.915C225.626 240.642 224.676 240.123 223.887 239.404C223.098 238.684 222.495 237.785 222.128 236.783C221.218 234.513 220.663 232.117 220.481 229.679C219.922 224.517 218.819 209.868 218.819 209.868C218.819 209.868 217.069 210.971 213.039 207.368C210.098 204.735 209.995 202.706 210.098 201.794L208.848 205.971L208.318 207.691L217.26 213.81L216.893 244.401H219.04L236.527 243.754C236.527 243.754 230.982 241.93 226.658 240.915Z" fill="#B1982F"/>
<path fill-rule="evenodd" clip-rule="evenodd" d="M239.645 213.089C239.645 214.192 241.233 228.841 243.234 234.93C243.744 236.482 244.012 238.104 244.028 239.739C244.039 240.976 243.936 242.212 243.719 243.43H245.381L247.175 243.357C247.175 243.357 243.028 213.413 244.322 213.045C245.616 212.677 255.794 206.588 255.794 206.588C255.794 206.588 255.499 205.618 255.117 204.279C249.984 206.809 239.645 212.31 239.645 213.089Z" fill="#B1982F"/>
<path fill-rule="evenodd" clip-rule="evenodd" d="M208.215 203.485C205.233 202.327 202.484 200.643 200.097 198.514C199.144 197.59 198.25 196.608 197.42 195.572L195.949 193.719C193.14 190.145 190.272 186.116 190.272 186.116C189.392 186.224 188.503 186.021 187.757 185.542C186.667 184.818 185.748 183.865 185.066 182.748L179.771 178.791C179.771 178.791 179.771 178.909 179.771 179.071C180.153 180.262 184.345 183.483 184.345 183.483C185.463 185.116 186.772 186.763 188.654 187.101C190.287 189.44 193.066 193.337 195.655 196.455C196.14 197.058 196.626 197.632 197.126 198.146C197.961 199.12 198.886 200.011 199.891 200.808C202.789 202.78 205.838 204.521 209.009 206.015L210.259 201.838C210.287 201.654 210.342 201.476 210.421 201.308C210.421 201.308 208.774 203.485 208.215 203.485Z" fill="#F6C987"/>
<path fill-rule="evenodd" clip-rule="evenodd" d="M258.882 101.886C260.307 122.867 260.636 143.907 259.867 164.922C260.235 165.099 260.647 165.26 261.088 165.422C271.119 168.923 299.21 167.246 306.828 164.128C307.961 137.478 309.343 116.314 310.652 100.033L313.491 109.534L314.123 109.166L323.992 103.475L324.992 102.901L324.55 101.298L323.58 101.71C320.521 103.004 316.388 104.651 315.491 104.857C314.844 104.99 313.182 100.872 311.505 96.1652C309.358 90.1793 307.21 83.2374 307.093 82.9285C306.902 82.3843 308.843 98.4154 308.755 98.9596C308.667 99.5037 305.343 138.081 303.74 154.848C303.342 158.966 303.048 161.76 302.945 162.304C302.386 165.069 268.854 162.495 267.015 161.76C266.721 161.642 266.412 160.069 266.103 157.495C264.397 143.611 262.471 100.504 262.309 99.6508C262.147 98.7978 261.397 79.84 261.397 79.84L258.22 95.2827L256.838 102.166C256.838 102.166 254.529 101.327 253.337 102.063C252.69 102.46 249.705 101.945 246.572 101.357L244.984 101.033L244.16 103.798L245.998 104.195L256.749 106.519L257.455 106.666L258.882 101.886Z" fill="#4FA84A"/>
<path fill-rule="evenodd" clip-rule="evenodd" d="M263.412 41.1303C266.354 41.1303 268.648 38.1888 268.648 34.5414C268.648 30.8939 266.295 27.9672 263.412 27.9672C260.529 27.9672 258.176 30.9086 258.176 34.5414C258.176 38.1741 260.529 41.1303 263.412 41.1303Z" fill="#FBD6A0"/>
<path fill-rule="evenodd" clip-rule="evenodd" d="M262.059 30.9086C263.206 30.9086 264.28 32.7176 264.456 34.9384C264.633 37.1592 263.839 38.9535 262.691 38.9535C261.544 38.9535 260.471 37.1592 260.309 34.9384C260.147 32.7176 260.927 30.9086 262.059 30.9086Z" fill="#EDA46C"/>
<path fill-rule="evenodd" clip-rule="evenodd" d="M308.858 41.1303C311.799 41.1303 314.094 38.1888 314.094 34.5414C314.094 30.8939 311.741 27.9672 308.858 27.9672C305.975 27.9672 303.622 30.9086 303.622 34.5414C303.622 38.1741 305.975 41.1303 308.858 41.1303Z" fill="#FBD6A0"/>
<path fill-rule="evenodd" clip-rule="evenodd" d="M310.196 30.9086C309.049 30.9086 307.975 32.7176 307.814 34.9384C307.652 37.1592 308.417 38.9535 309.564 38.9535C310.711 38.9535 311.785 37.1592 311.961 34.9384C312.138 32.7176 311.343 30.9086 310.196 30.9086Z" fill="#EDA46C"/>
<path fill-rule="evenodd" clip-rule="evenodd" d="M262.221 37.9241C261.721 37.5564 259.485 22.7167 259.485 21.143C259.485 19.5693 264.309 13.7893 264.309 13.7893L268.413 19.2605C267.648 20.8489 262.721 38.2771 262.221 37.9241Z" fill="#A95C40"/>
<path fill-rule="evenodd" clip-rule="evenodd" d="M286.164 7.87683C272.928 7.87683 262.089 19.8339 262.089 34.5854C262.089 49.337 272.81 61.2793 286.164 61.2793C299.519 61.2793 310.255 49.3222 310.255 34.5707C310.255 19.8192 299.401 7.87683 286.164 7.87683Z" fill="#FBD6A0"/>
<path fill-rule="evenodd" clip-rule="evenodd" d="M262.118 36.8503C263.162 50.5282 274.207 61.2793 286.105 61.2793C298.004 61.2793 306.696 52.8226 309.402 41.3508C309.696 39.1888 309.873 37.6298 309.873 37.6298C308.77 40.9243 305.872 51.9401 299.504 53.705C297.504 54.2492 296.783 46.6013 294.842 45.7336C292.9 44.8659 290.282 46.1454 286.37 46.1895C282.458 46.2337 280.487 45.1747 278.355 45.6895C276.222 46.2042 274.898 53.2344 274.075 53.1902C266.427 52.8079 262.382 37.4092 262.118 36.8503ZM285.87 48.6163L293.459 47.9838C293.493 50.0482 293.216 52.106 292.636 54.0874C290.826 59.0879 279.222 57.7054 278.369 53.2491C278 51.5105 278.025 49.7114 278.443 47.9838L285.87 48.6163Z" fill="#F5B386"/>
<path fill-rule="evenodd" clip-rule="evenodd" d="M275.384 30.4085C275.931 30.4385 276.468 30.5767 276.961 30.8152C277.455 31.0538 277.897 31.3879 278.261 31.7982C278.624 32.2086 278.903 32.687 279.081 33.2058C279.259 33.7246 279.332 34.2735 279.296 34.8207C279.064 35.9369 278.41 36.9202 277.469 37.5645C276.529 38.2088 275.376 38.4641 274.251 38.277C273.698 38.2436 273.156 38.0999 272.659 37.8544C272.162 37.6088 271.718 37.2664 271.355 36.8471C270.992 36.4278 270.717 35.9402 270.545 35.4129C270.373 34.8856 270.308 34.3292 270.354 33.7765C270.605 32.6796 271.265 31.72 272.2 31.0939C273.135 30.4678 274.274 30.2227 275.384 30.4085Z" fill="white"/>
<path fill-rule="evenodd" clip-rule="evenodd" d="M297.415 30.585C297.968 30.6165 298.51 30.7584 299.007 31.0024C299.504 31.2464 299.947 31.5875 300.311 32.0056C300.674 32.4237 300.95 32.9103 301.122 33.4368C301.294 33.9632 301.359 34.5188 301.313 35.0708C301.081 36.184 300.429 37.1649 299.492 37.8088C298.555 38.4527 297.405 38.71 296.283 38.527C295.729 38.4974 295.186 38.3569 294.687 38.1138C294.188 37.8706 293.743 37.5298 293.378 37.1115C293.013 36.6932 292.736 36.2059 292.563 35.6785C292.39 35.1511 292.325 34.5944 292.371 34.0413C292.602 32.9251 293.257 31.9418 294.197 31.2975C295.138 30.6532 296.291 30.3979 297.415 30.585Z" fill="white"/>
<path fill-rule="evenodd" clip-rule="evenodd" d="M309.946 38.4535C310.093 40.0566 312.799 21.4076 312.799 19.8487C312.799 18.2897 307.975 12.495 307.975 12.495C307.625 10.0596 306.926 7.68715 305.902 5.45014C299.004 -7.43353 264.309 7.15619 254.632 2.7881C254.485 2.71456 252.411 24.8492 291.238 19.8487C301.651 18.5103 303.872 17.9661 303.872 17.9661C310.917 25.6875 309.079 29.0996 309.946 38.4535Z" fill="#A95C40"/>
<path fill-rule="evenodd" clip-rule="evenodd" d="M296.71 37.1739C297.27 37.1593 297.814 36.9806 298.275 36.66C298.735 36.3394 299.091 35.8908 299.299 35.3699C299.507 34.849 299.557 34.2785 299.444 33.7291C299.331 33.1798 299.06 32.6756 298.663 32.279C298.266 31.8824 297.762 31.6108 297.213 31.4978C296.663 31.3848 296.093 31.4353 295.572 31.6432C295.051 31.8511 294.603 32.2072 294.282 32.6674C293.961 33.1276 293.783 33.6717 293.768 34.2324C293.768 35.0125 294.078 35.7607 294.63 36.3123C295.181 36.864 295.929 37.1739 296.71 37.1739Z" fill="#3E3A39"/>
<path fill-rule="evenodd" clip-rule="evenodd" d="M295.371 34.1736C295.545 34.1707 295.714 34.1165 295.857 34.0178C296.001 33.9191 296.111 33.7802 296.176 33.6188C296.24 33.4573 296.256 33.2803 296.22 33.1101C296.184 32.9399 296.099 32.7841 295.975 32.6621C295.851 32.5402 295.694 32.4576 295.523 32.4247C295.352 32.3919 295.176 32.4102 295.015 32.4774C294.855 32.5446 294.718 32.6577 294.622 32.8024C294.525 32.9472 294.474 33.1172 294.474 33.2911C294.474 33.4083 294.497 33.5242 294.543 33.6323C294.588 33.7403 294.654 33.8382 294.738 33.9204C294.821 34.0025 294.92 34.0672 295.029 34.1107C295.138 34.1541 295.254 34.1755 295.371 34.1736Z" fill="#EEEEEF"/>
<path fill-rule="evenodd" clip-rule="evenodd" d="M292.724 30.4233C294.983 29.9996 297.303 30.0346 299.548 30.5262C302.004 31.291 303.107 30.085 300.004 28.8937C297.662 28.1283 295.155 28.0164 292.753 28.5701C291.297 28.9819 291.253 30.7762 292.724 30.4233Z" fill="#A95C40"/>
<path fill-rule="evenodd" clip-rule="evenodd" d="M275.104 36.7034C275.662 36.6976 276.205 36.5271 276.665 36.2133C277.126 35.8995 277.483 35.4564 277.692 34.94C277.901 34.4235 277.953 33.8567 277.841 33.3109C277.729 32.765 277.457 32.2646 277.061 31.8727C276.665 31.4807 276.162 31.2146 275.615 31.1081C275.068 31.0015 274.502 31.0591 273.988 31.2736C273.473 31.4882 273.034 31.8501 272.725 32.3138C272.416 32.7776 272.251 33.3223 272.251 33.8796C272.253 34.2523 272.328 34.6211 272.473 34.9647C272.617 35.3084 272.828 35.6202 273.093 35.8824C273.358 36.1446 273.672 36.3521 274.017 36.493C274.362 36.6338 274.732 36.7053 275.104 36.7034Z" fill="#3E3A39"/>
<path fill-rule="evenodd" clip-rule="evenodd" d="M273.781 33.7618C273.955 33.7618 274.126 33.7101 274.271 33.6131C274.416 33.5162 274.529 33.3783 274.596 33.2171C274.663 33.0558 274.68 32.8784 274.646 32.7072C274.612 32.5361 274.528 32.3788 274.405 32.2554C274.281 32.132 274.124 32.048 273.953 32.0139C273.782 31.9799 273.604 31.9973 273.443 32.0641C273.282 32.1309 273.144 32.244 273.047 32.3891C272.95 32.5342 272.898 32.7049 272.898 32.8794C272.898 33.1134 272.991 33.3379 273.157 33.5034C273.322 33.6689 273.547 33.7618 273.781 33.7618Z" fill="#EEEEEF"/>
<path fill-rule="evenodd" clip-rule="evenodd" d="M277.869 30.1439C275.814 29.7685 273.705 29.8035 271.663 30.2469C269.442 30.9528 268.442 29.8498 271.251 28.7761C273.376 28.0855 275.648 27.9838 277.825 28.482C279.149 28.8496 279.193 30.4822 277.869 30.1439Z" fill="#A95C40"/>
<path fill-rule="evenodd" clip-rule="evenodd" d="M278.443 47.9249C278.628 49.788 279.498 51.516 280.886 52.7729C282.274 54.0298 284.079 54.7259 285.951 54.7259C287.823 54.7259 289.629 54.0298 291.016 52.7729C292.404 51.516 293.275 49.788 293.459 47.9249H278.443Z" fill="#4F2211"/>
<path fill-rule="evenodd" clip-rule="evenodd" d="M279.958 47.9249H291.944V49.6016C291.957 49.7647 291.906 49.9264 291.801 50.0525C291.697 50.1787 291.548 50.2596 291.386 50.2781H280.531C280.366 50.2631 280.214 50.1838 280.106 50.0573C279.999 49.9307 279.946 49.767 279.958 49.6016V47.9249Z" fill="white"/>
<path fill-rule="evenodd" clip-rule="evenodd" d="M282.385 42.5569C282.385 43.5423 284.091 44.3365 286.106 44.3365C288.12 44.3365 289.768 43.5423 289.841 42.5569H282.385Z" fill="#DF9C72"/>
<path fill-rule="evenodd" clip-rule="evenodd" d="M254.632 2.78811C254.585 5.49852 255.271 8.17121 256.617 10.5242C257.963 12.8772 259.92 14.8233 262.28 16.1571C263.724 17.0427 265.263 17.763 266.868 18.3044L268.339 18.7603C275.193 20.7605 308.534 22.4372 308.049 12.2155C308.049 12.2155 305.284 12.8186 301.122 13.348L298.43 13.6422C293.764 13.8385 289.103 13.1498 284.694 11.6125C285.962 12.7653 287.37 13.7536 288.885 14.554C289.724 14.8188 288.15 14.7305 283.914 14.1275C281.767 13.8334 277.325 12.6568 273.413 11.6861C269.501 10.7154 266.309 9.73 266.177 9.67117C267.108 11.106 268.14 12.4724 269.266 13.7598C269.633 14.0834 267.515 13.3921 262.441 9.89178C259.479 7.86347 256.853 5.38194 254.661 2.53809L254.632 2.78811Z" fill="#9F553D"/>
<path fill-rule="evenodd" clip-rule="evenodd" d="M167.27 21.5399C167.623 22.2017 170.814 25.658 177.565 29.7319C184.316 33.8059 195.729 36.8209 195.655 36.4385C195.582 36.0561 189.081 30.9085 189.61 31.1732C190.14 31.438 197.655 33.6 197.067 33.6882C196.479 33.7764 190.419 25.8639 190.419 25.8639L196.743 28.1141C195.318 24.7837 193.071 21.8691 190.213 19.6426C185.801 16.5394 172.285 15.4805 172.903 15.6128C173.521 15.7452 180.065 19.2897 180.065 19.2897C174.937 17.6924 169.549 17.0982 164.196 17.5395C164.549 17.5395 171.55 20.4074 171.55 20.4074L165.667 19.3485L167.27 21.5399Z" fill="#7D4025"/>
<path fill-rule="evenodd" clip-rule="evenodd" d="M163.372 28.982C163.005 30.188 161.328 32.9824 156.916 41.145C152.503 49.3076 150.106 51.1019 150.106 51.1019C150.106 51.1019 151.121 58.0585 152.268 64.2503C153.415 70.4421 157.666 79.5754 156.548 78.2811C153.422 72.6015 150.894 66.6129 149.003 60.4117C147.885 55.7053 147.709 53.7786 147.709 54.4258C147.709 55.0729 148.077 64.4562 148.077 63.2502C148.077 62.0442 144.209 51.7784 144.664 44.263C145.12 36.7475 145.87 34.7767 145.87 34.7767C145.87 34.7767 146.076 39.3213 146.047 38.9683C147.465 34.4853 149.531 30.234 152.18 26.3494C155.357 22.3342 157.195 20.9517 156.739 21.4665C156.283 21.9813 153.621 31.3057 153.798 30.7763C153.974 30.2468 159.828 21.643 159.681 22.1577C159.534 22.6725 158.342 26.57 156.416 32.0117C154.489 37.4534 152.636 41.3215 153.474 40.5861C154.312 39.8507 163.372 28.982 163.372 28.982Z" fill="#7D4025"/>
<path fill-rule="evenodd" clip-rule="evenodd" d="M195.699 62.2059C193.258 70.3685 190.301 76.1632 190.949 75.2513C191.596 74.3394 194.64 69.5301 194.405 70.4126C194.169 71.295 192.052 79.237 192.508 78.4281C192.963 77.6192 198.714 61.4411 199.861 54.8963C200.487 49.9738 200.413 44.9876 199.641 40.0859C199.641 40.586 199.273 49.8516 199.317 48.3809C198.978 45.6422 198.392 42.9398 197.567 40.3065C198.279 47.6592 197.646 55.0801 195.699 62.2059Z" fill="#7D4025"/>
<path fill-rule="evenodd" clip-rule="evenodd" d="M229.791 167.673C228.747 166.393 227.144 163.893 228.114 162.216C226.438 162.378 224.585 165.246 224.393 165.805C224.499 164.015 224.902 162.256 225.585 160.598C226.894 157.657 230.673 154.421 231.894 153.421L232.262 153.112L231.673 153.215C221.628 155.201 212.23 169.07 218.805 172.188C218.907 172.188 218.407 172.261 220.113 172.997C221.782 173.502 223.548 173.598 225.261 173.276C224.461 173.669 223.609 173.946 222.731 174.1C221.952 174.1 223.746 174.791 228.026 174.703C231.081 174.572 234.118 174.168 237.101 173.497C236.329 174.054 235.512 174.546 234.659 174.968C234.203 175.056 236.233 175.703 241.439 173.909C242.042 173.688 242.586 173.497 243.042 173.306C244.807 172.1 245.984 171.158 245.984 171.158C245.984 171.158 243.998 169.32 242.366 167.761H241.601L243.336 170.497C241.561 171.189 239.616 171.322 237.762 170.879C234.821 170.085 233.203 167.673 232.85 167.673C232.497 167.673 232.85 170.364 232.85 170.364C232.85 170.364 232.438 170.364 230.732 168.702C230.401 168.376 230.087 168.032 229.791 167.673Z" fill="#A5573B"/>
<defs>
<linearGradient id="paint0_linear" x1="120.103" y1="174.938" x2="124.001" y2="184.277" gradientUnits="userSpaceOnUse">
<stop stop-color="#FBE5D5"/>
<stop offset="1" stop-color="#F8CAA8"/>
</linearGradient>
</defs>
</svg>
